<?xml version="1.0" encoding="UTF-8" standalone="no"?>
<!-- Created with Inkscape (http://www.inkscape.org/) -->

<svg
   xmlns:dc="http://purl.org/dc/elements/1.1/"
   xmlns:cc="http://creativecommons.org/ns#"
   xmlns:rdf="http://www.w3.org/1999/02/22-rdf-syntax-ns#"
   xmlns:svg="http://www.w3.org/2000/svg"
   xmlns="http://www.w3.org/2000/svg"
   xmlns:sodipodi="http://sodipodi.sourceforge.net/DTD/sodipodi-0.dtd"
   xmlns:inkscape="http://www.inkscape.org/namespaces/inkscape"
   width="42.333351mm"
   height="14.111116mm"
   viewBox="0 0 150.00006 50.000018"
   id="svg3357"
   version="1.1"
   inkscape:version="0.91 r13725"
   sodipodi:docname="logo.svg">
  <defs
     id="defs3359" />
  <sodipodi:namedview
     id="base"
     pagecolor="#ffffff"
     bordercolor="#666666"
     borderopacity="1.0"
     inkscape:pageopacity="0.0"
     inkscape:pageshadow="2"
     inkscape:zoom="1"
     inkscape:cx="158.45412"
     inkscape:cy="70.449635"
     inkscape:document-units="px"
     inkscape:current-layer="layer1"
     showgrid="false"
     fit-margin-top="0"
     fit-margin-left="0"
     fit-margin-right="0"
     fit-margin-bottom="0"
     inkscape:window-width="1366"
     inkscape:window-height="744"
     inkscape:window-x="0"
     inkscape:window-y="24"
     inkscape:window-maximized="1" />
  <metadata
     id="metadata3362">
    <rdf:RDF>
      <cc:Work
         rdf:about="">
        <dc:format>image/svg+xml</dc:format>
        <dc:type
           rdf:resource="http://purl.org/dc/dcmitype/StillImage" />
        <dc:title></dc:title>
      </cc:Work>
    </rdf:RDF>
  </metadata>
  <g
     inkscape:label="Laag 1"
     inkscape:groupmode="layer"
     id="layer1"
     transform="translate(287.11054,-610.19995)">
    <path
       style="fill:#000000"
       d="m -272.52849,660.18591 c 0.002,-0.0338 -0.0426,-0.064 -0.0987,-0.0672 -0.14288,-0.008 -0.29354,-0.17626 -0.36659,-0.40862 -0.0581,-0.18483 -0.37149,-0.84581 -0.4316,-0.9103 -0.0149,-0.016 -0.1272,-0.18443 -0.24931,-0.3741 -0.12211,-0.18971 -0.2805,-0.41056 -0.35194,-0.49081 -0.0714,-0.0802 -0.26948,-0.36565 -0.44006,-0.6342 -0.17062,-0.26855 -0.41577,-0.62521 -0.54482,-0.79261 -0.12906,-0.16735 -0.29921,-0.41723 -0.3781,-0.55527 -0.0789,-0.138 -0.18685,-0.26525 -0.23989,-0.28274 -0.0531,-0.0173 -0.16085,-0.15309 -0.23958,-0.30127 -0.0787,-0.14819 -0.3862,-0.55024 -0.68329,-0.89342 -0.2971,-0.34321 -0.59893,-0.73214 -0.67072,-0.86434 -0.0718,-0.13218 -0.17718,-0.27399 -0.23419,-0.31507 -0.057,-0.0411 -0.10192,-0.1047 -0.0999,-0.14137 0.002,-0.0366 -0.0765,-0.13678 -0.1745,-0.22249 -0.0981,-0.0857 -0.2229,-0.24426 -0.27746,-0.35225 -0.0546,-0.10801 -0.13305,-0.21194 -0.17443,-0.23098 -0.0696,-0.0319 -0.42459,-0.40483 -1.01777,-1.06894 -0.13349,-0.14946 -0.25423,-0.32845 -0.26828,-0.39771 -0.0142,-0.0693 -0.0534,-0.12741 -0.0872,-0.12917 -0.0341,-0.002 -0.14191,-0.0966 -0.23989,-0.21044 -0.34456,-0.40076 -0.8906,-0.9623 -0.93846,-0.96511 -0.0265,-0.002 -0.14764,-0.11439 -0.26895,-0.25077 -0.12132,-0.13641 -0.30897,-0.34027 -0.41701,-0.45308 -0.10805,-0.11278 -0.44261,-0.46213 -0.74347,-0.77635 -0.30086,-0.3142 -0.56799,-0.57249 -0.59361,-0.57399 -0.0256,-0.001 -0.13395,-0.10515 -0.24073,-0.23022 -0.1068,-0.12512 -0.35104,-0.31842 -0.54278,-0.42955 -0.19172,-0.11118 -0.38585,-0.23746 -0.4314,-0.28071 -0.0935,-0.0888 -0.93796,-0.57608 -0.93985,-0.54233 -0.001,0.0247 -0.48429,-0.26486 -1.01246,-0.60731 -0.19566,-0.12686 -0.3706,-0.21711 -0.38878,-0.20058 -0.0182,0.0165 -0.10159,-0.011 -0.18531,-0.0619 -0.0837,-0.0505 -0.17458,-0.0796 -0.20186,-0.0645 -0.0471,0.026 -0.41347,-0.41605 -0.40912,-0.4936 10e-4,-0.0201 0.0539,-0.0794 0.11728,-0.1314 0.0633,-0.0521 0.19843,-0.24102 0.30012,-0.41979 0.22519,-0.39589 0.27722,-0.45582 0.44178,-0.5089 0.11172,-0.0361 0.12693,-0.0702 0.11529,-0.25891 -0.0118,-0.19486 0.002,-0.2229 0.13502,-0.27002 0.44142,-0.15634 0.86714,-0.0211 1.26948,0.40292 0.12143,0.12802 0.25345,0.23468 0.29334,0.23701 0.0399,0.002 0.12191,0.0694 0.18228,0.14892 0.0604,0.0796 0.15386,0.14729 0.20773,0.15043 0.0539,0.003 0.17814,0.0747 0.27615,0.1588 0.0981,0.0842 0.26729,0.19635 0.37618,0.24924 0.10887,0.0529 0.19675,0.11763 0.19527,0.14387 -10e-4,0.0262 0.074,0.0929 0.16796,0.14824 0.18179,0.10712 0.22335,0.14607 0.64959,0.60907 0.15065,0.16365 0.29656,0.29885 0.32423,0.30046 0.0277,0.002 0.13804,0.1014 0.24525,0.22176 0.10721,0.12036 0.2474,0.26362 0.31152,0.31842 0.21265,0.18159 0.88912,0.8947 1.17061,1.23402 0.1525,0.18384 0.29481,0.3353 0.31625,0.33655 0.0215,10e-4 0.13963,0.11413 0.26264,0.25082 0.12302,0.13672 0.33328,0.36109 0.46724,0.49863 0.13396,0.13753 0.24286,0.26816 0.24197,0.29031 -0.003,0.0486 0.28891,0.40102 0.65237,0.79069 0.14633,0.1569 0.37303,0.43154 0.50378,0.61028 0.13076,0.17873 0.25548,0.33429 0.27722,0.34571 0.0217,0.0115 0.0379,0.0512 0.0358,0.0885 -0.004,0.0802 0.22814,0.33826 0.39565,0.4389 0.0649,0.0391 0.11608,0.10583 0.11369,0.14856 -0.002,0.0427 0.0391,0.11269 0.0919,0.15553 0.053,0.0429 0.11035,0.13431 0.12753,0.20328 0.0172,0.069 0.12131,0.23262 0.23141,0.36373 0.11012,0.13114 0.19945,0.25146 0.19856,0.2674 -8.8e-4,0.0158 0.0886,0.15929 0.19906,0.31857 0.11037,0.1593 0.19956,0.30953 0.1982,0.33386 -0.001,0.0243 0.0426,0.0617 0.0977,0.0832 0.0551,0.0214 0.1599,0.14357 0.23292,0.27141 0.12661,0.22174 0.9025,1.24988 1.00626,1.33341 0.0271,0.0217 0.0545,0.0937 0.0606,0.15963 0.006,0.0659 0.0854,0.20638 0.17631,0.31221 0.22856,0.26616 0.36344,0.48502 0.49052,0.7958 0.10536,0.25776 0.22846,0.37514 0.1767,0.16851 -0.057,-0.22732 0.0413,-2.11555 0.12134,-2.3434 0.0442,-0.12477 0.076,-0.33334 0.0708,-0.46339 -0.006,-0.15511 0.0278,-0.30551 0.099,-0.43679 0.0717,-0.13222 0.11209,-0.31186 0.11903,-0.5287 0.005,-0.18066 0.0366,-0.35715 0.0687,-0.39226 0.0321,-0.0351 0.0747,-0.13348 0.0947,-0.21862 0.0408,-0.17323 0.2052,-0.63936 0.2836,-0.80423 0.14208,-0.2988 0.20488,-0.62718 0.13809,-0.72202 -0.0615,-0.0872 -0.0133,-0.16228 0.30819,-0.47842 0.15939,-0.15675 0.29402,-0.2447 0.35162,-0.22973 0.0707,0.0185 0.0858,-1.1e-4 0.0626,-0.0784 -0.0168,-0.0564 -0.0513,-0.11858 -0.0764,-0.13808 -0.0734,-0.0571 0.46326,-0.2081 0.7255,-0.20406 0.17011,0.002 0.27023,0.0357 0.3428,0.11293 0.0576,0.0614 0.18155,0.11385 0.28286,0.11976 0.1444,0.008 0.18936,0.0398 0.22567,0.15677 0.0248,0.0805 0.12679,0.2604 0.22636,0.39991 0.21988,0.30806 0.50511,0.75513 0.7382,1.15702 0.0953,0.16447 0.22104,0.33338 0.2792,0.37535 0.0583,0.0419 0.10438,0.10181 0.10263,0.13294 -0.002,0.031 0.13377,0.22555 0.30114,0.43199 0.16741,0.20643 0.30259,0.40679 0.30043,0.44526 -0.002,0.0385 0.0278,0.0717 0.0663,0.074 0.0386,0.002 0.12423,0.10784 0.19022,0.23462 0.066,0.12681 0.26866,0.40787 0.45038,0.62456 0.30289,0.36121 1.00481,1.24388 1.06382,1.33771 0.0136,0.0217 0.11231,0.0874 0.21919,0.14594 0.10687,0.0586 0.23832,0.17067 0.29211,0.24924 0.0538,0.0786 0.11112,0.1437 0.12742,0.14465 0.0602,0.003 -0.0276,-1.40108 -0.12323,-1.97103 -0.0258,-0.15363 -0.064,-0.41726 -0.0849,-0.58581 -0.0442,-0.35601 -0.10052,-0.72707 -0.15266,-1.00467 -0.0202,-0.10765 -0.0432,-0.38283 -0.051,-0.61147 -0.008,-0.22864 -0.0408,-0.47952 -0.0732,-0.55748 -0.0324,-0.0779 -0.0752,-0.34184 -0.0951,-0.58641 -0.0199,-0.24455 -0.0504,-0.61973 -0.068,-0.83375 -0.0176,-0.21402 -0.0483,-0.50208 -0.0684,-0.64017 -0.0201,-0.13808 -0.0377,-0.52439 -0.039,-0.85846 -10e-4,-0.33406 -0.0221,-0.65047 -0.046,-0.70312 -0.11577,-0.25458 0.35983,-6.18578 0.51944,-6.47885 0.0273,-0.05 0.0485,-0.14702 0.0469,-0.21559 -0.001,-0.0685 0.0189,-0.12337 0.0451,-0.12184 0.0262,0.002 0.0512,-0.1277 0.0555,-0.28719 0.008,-0.30108 0.20743,-1.36036 0.27425,-1.45777 0.021,-0.0305 0.0738,-0.30682 0.11739,-0.61386 0.0436,-0.30707 0.10585,-0.573 0.13848,-0.59102 0.0349,-0.0192 0.0716,-0.24746 0.0892,-0.55389 0.0345,-0.61554 0.0529,-0.71677 0.18153,-1.03783 0.0536,-0.13379 0.12262,-0.43534 0.15353,-0.67009 0.031,-0.23474 0.1157,-0.61414 0.1884,-0.84304 0.0727,-0.22894 0.13684,-0.49941 0.14254,-0.60106 0.006,-0.10171 0.0611,-0.24934 0.1232,-0.32814 0.0671,-0.0852 0.12905,-0.26682 0.15281,-0.44773 0.0219,-0.16739 0.0708,-0.35584 0.10845,-0.41876 0.0377,-0.0629 0.0714,-0.16648 0.075,-0.2302 0.004,-0.0638 0.0504,-0.17646 0.10423,-0.25055 0.0537,-0.0742 0.10606,-0.20088 0.11614,-0.28173 0.0179,-0.14128 0.20936,-0.58447 0.3811,-0.88116 0.0452,-0.0781 0.0847,-0.1754 0.0878,-0.21615 0.002,-0.0408 0.1131,-0.12171 0.24444,-0.17985 0.22064,-0.0976 0.26288,-0.0991 0.55542,-0.0187 0.17412,0.048 0.36957,0.12021 0.43436,0.16073 0.0648,0.0406 0.21592,0.0895 0.33582,0.10874 0.39087,0.0628 0.73583,0.23526 0.85988,0.42982 0.17084,0.26795 0.25878,0.56434 0.17435,0.58768 -0.0369,0.0102 -0.10678,0.0869 -0.15525,0.17045 -0.0485,0.0836 -0.14411,0.16641 -0.21255,0.18416 -0.13209,0.0342 -0.22994,0.13943 -0.41137,0.4422 -0.0617,0.10289 -0.14479,0.20398 -0.18475,0.22465 -0.04,0.0207 -0.0926,0.10978 -0.11675,0.19805 -0.0243,0.0882 -0.0889,0.21502 -0.14361,0.28172 -0.0547,0.0667 -0.1547,0.30473 -0.22217,0.52901 -0.0676,0.22423 -0.17296,0.5066 -0.23442,0.62745 -0.23664,0.46557 -0.49325,1.12932 -0.50286,1.30081 -0.006,0.10658 -0.05,0.20632 -0.10869,0.24585 -0.0543,0.0365 -0.10473,0.10353 -0.1122,0.14873 -0.008,0.0452 -0.0895,0.29652 -0.18236,0.55847 -0.0928,0.26196 -0.16569,0.50664 -0.16193,0.54376 0.004,0.0372 -0.0211,0.12804 -0.0557,0.20209 -0.11464,0.24687 -0.15062,0.42621 -0.0936,0.46685 0.0379,0.0269 0.0294,0.0677 -0.0256,0.12638 -0.12778,0.13605 -0.27615,0.50709 -0.33073,0.82721 -0.0276,0.16111 -0.066,0.3667 -0.0856,0.45684 -0.0196,0.0901 -0.0689,0.3611 -0.10949,0.60212 -0.0407,0.24103 -0.10915,0.64779 -0.15227,0.90391 -0.0432,0.25611 -0.11295,0.85515 -0.15519,1.33122 -0.0423,0.47608 -0.10626,0.9148 -0.14224,0.97492 -0.0361,0.0601 -0.0809,0.363 -0.0998,0.67307 -0.0524,0.84565 -0.19348,2.12518 -0.25409,2.28731 -0.0192,0.0511 -0.004,0.14112 0.0332,0.2 0.0435,0.0688 0.0537,0.19212 0.0281,0.34447 -0.0218,0.13059 -0.0184,0.23865 0.01,0.24028 0.0499,0.003 -0.0132,1.07006 -0.0685,1.1499 -0.0163,0.0236 -0.0176,0.27815 -0.004,0.56544 0.0141,0.28729 0.0215,0.79598 0.0168,1.13038 -0.0159,1.12894 -0.0144,1.27122 0.0151,1.38387 0.0161,0.0618 0.04,0.37438 0.0529,0.69458 0.0129,0.32022 0.0307,0.65734 0.0398,0.74913 0.009,0.0917 0.022,0.31661 0.0289,0.49955 0.007,0.18297 0.0322,0.38362 0.0565,0.44585 0.0513,0.13206 0.13413,0.57884 0.12966,0.69907 -0.003,0.0454 0.0135,0.15844 0.0338,0.25093 0.0203,0.0924 0.0446,0.25616 0.0538,0.36374 0.009,0.10763 0.0682,0.36337 0.13101,0.56833 0.0628,0.20496 0.099,0.38647 0.0804,0.40338 -0.0185,0.0168 -0.0106,0.0638 0.0167,0.10412 0.0561,0.0815 0.0917,0.26436 0.13678,0.70103 0.0182,0.17732 0.08,0.36042 0.15694,0.46525 0.0697,0.095 0.14035,0.22978 0.15694,0.29936 0.0166,0.0696 0.0609,0.1668 0.0985,0.21604 0.0449,0.0589 0.0533,0.15837 0.0247,0.29034 -0.0367,0.16879 -0.0806,0.21654 -0.27631,0.2994 -0.12799,0.0543 -0.26153,0.0969 -0.29672,0.0949 -0.0352,-0.002 -0.0655,0.0207 -0.0671,0.0506 -0.002,0.0318 -0.12097,0.0384 -0.28557,0.0158 -0.1554,-0.0213 -0.34533,-0.0445 -0.42207,-0.0515 -0.19668,-0.0186 -1.15268,-0.87896 -2.03466,-1.83188 -0.30934,-0.33422 -0.62903,-0.67662 -0.71042,-0.76088 -0.0813,-0.0843 -0.29426,-0.34844 -0.47302,-0.58706 -0.17879,-0.23864 -0.40198,-0.50655 -0.49599,-0.59536 -0.0941,-0.0888 -0.23144,-0.28356 -0.30542,-0.43274 -0.24394,-0.49182 -0.5489,-1.01282 -0.65934,-1.12635 -0.0598,-0.0614 -0.10724,-0.13891 -0.1055,-0.17211 0.003,-0.0523 -0.17081,-0.30243 -0.42709,-0.61567 -0.0414,-0.0506 -0.0744,-0.15212 -0.0733,-0.22557 0.001,-0.10739 -0.0106,-0.0963 -0.0619,0.0564 -0.0351,0.10445 -0.10076,0.26539 -0.1458,0.35765 -0.0451,0.0922 -0.13853,0.47265 -0.20773,0.84532 -0.0692,0.37267 -0.15575,0.75798 -0.1923,0.85618 -0.103,0.27678 -0.22652,0.88529 -0.23277,1.1472 -0.004,0.16077 -0.0243,0.22329 -0.0635,0.19522 -0.0319,-0.0227 -0.045,-0.0171 -0.0292,0.0123 0.0157,0.0296 -0.0154,0.27445 -0.0715,0.54398 -0.20661,1.01153 -0.22407,2.75855 -0.034,3.39321 0.0433,0.14449 0.0575,0.3191 0.0337,0.41687 -0.0265,0.10937 -0.007,0.2568 0.0537,0.42143 0.052,0.13924 0.0728,0.26518 0.0463,0.27983 -0.0265,0.0146 -0.0681,0.0914 -0.0924,0.17042 -0.0436,0.14217 -0.0457,0.14263 -0.19939,0.0432 -0.15024,-0.0972 -0.15909,-0.0966 -0.26788,0.0235 -0.0619,0.0682 -0.11098,0.0965 -0.10909,0.0628 z m 0.14005,-4.43273 c 0.0152,-0.2709 -0.0108,-0.26468 -0.0777,0.0185 -0.0306,0.12954 -0.0275,0.20583 0.008,0.20793 0.031,0.002 0.0623,-0.10007 0.0694,-0.22644 z m 0.0439,-0.69355 c -0.0405,-0.0813 -0.0517,-0.0643 -0.0605,0.0932 -0.009,0.15744 4.8e-4,0.17581 0.0497,0.0998 0.0411,-0.0634 0.0446,-0.12527 0.0108,-0.19297 z m 7.02156,0.29097 c -0.0236,-0.2045 -0.0614,-0.32966 -0.0913,-0.30244 -0.0299,0.0271 -0.034,0.1146 -0.01,0.21124 0.0227,0.0906 0.0526,0.23693 0.0664,0.32502 0.0476,0.3011 0.0749,0.11566 0.0347,-0.23382 z m -0.45094,-2.46291 c 0.002,-0.0287 -0.0204,-0.0687 -0.0493,-0.0892 -0.0288,-0.0206 -0.0544,0.002 -0.057,0.0487 -0.003,0.0473 0.0193,0.0873 0.0493,0.0891 0.0297,0.002 0.0554,-0.02 0.057,-0.0487 z m -0.10376,-0.41039 c -0.0129,-0.0388 -0.0269,-0.009 -0.0312,0.0673 -0.004,0.0758 0.006,0.10756 0.0234,0.0705 0.0171,-0.0369 0.0206,-0.0992 0.008,-0.13785 z m -12.96332,-3.01057 c -0.0165,-0.0314 -0.0546,-0.0586 -0.0844,-0.0603 -0.0298,-0.002 -0.0404,0.0223 -0.0239,0.054 0.0165,0.0314 0.0546,0.0586 0.0844,0.0603 0.0298,0.002 0.0404,-0.0223 0.0239,-0.054 z m -1.85602,-2.0818 c -0.0575,-0.11553 -0.0748,-0.0806 -0.0305,0.0611 0.0157,0.0504 0.0407,0.0806 0.0554,0.0672 0.0147,-0.0135 0.004,-0.0711 -0.025,-0.12831 z m 14.18952,-1.08485 c -0.0129,-0.0388 -0.0269,-0.009 -0.0312,0.0673 -0.004,0.0758 0.006,0.10756 0.0234,0.0706 0.0171,-0.0369 0.0206,-0.0991 0.008,-0.13783 z m 11.23852,7.20815 c -0.13641,-0.0182 -0.2576,-0.0736 -0.31222,-0.14267 -0.0491,-0.0621 -0.11585,-0.11518 -0.14836,-0.11786 -0.0694,-0.006 -0.38256,-0.52265 -0.37697,-0.62235 0.002,-0.0375 -0.021,-0.0547 -0.0513,-0.0379 -0.07,0.0388 -0.29946,-0.23565 -0.55871,-0.66827 -0.0661,-0.11034 -0.13713,-0.21439 -0.15777,-0.2312 -0.0206,-0.0167 -0.0804,-0.17164 -0.13288,-0.34407 -0.0526,-0.1724 -0.17465,-0.41966 -0.27152,-0.54945 -0.0968,-0.12975 -0.17517,-0.25302 -0.174,-0.2739 0.001,-0.0209 -0.15294,-0.26392 -0.34245,-0.54009 -0.18954,-0.27618 -0.37472,-0.56384 -0.41154,-0.63927 -0.1115,-0.22832 -0.44915,-0.76293 -0.5752,-0.91071 -0.0651,-0.0764 -0.11675,-0.16992 -0.11463,-0.20779 0.002,-0.0378 -0.0547,-0.11306 -0.12619,-0.16703 -0.0715,-0.0542 -0.12862,-0.12425 -0.12683,-0.15608 0.002,-0.0318 -0.097,-0.18015 -0.21955,-0.32962 -0.62424,-0.76145 -0.66519,-0.91056 -0.3639,-1.32579 0.0562,-0.0775 0.0885,-0.15688 0.0717,-0.17619 -0.10882,-0.12449 0.49829,-0.47419 0.68203,-0.39289 0.039,0.0173 0.13689,-0.0155 0.21761,-0.0731 0.11857,-0.0844 0.15391,-0.0895 0.18397,-0.0265 0.0229,0.0484 0.14043,0.0863 0.30842,0.1 0.35611,0.029 0.57934,0.16011 0.87866,0.51576 0.1351,0.16054 0.30111,0.35559 0.36885,0.43339 0.0678,0.0778 0.14703,0.18714 0.17619,0.24293 0.0291,0.0559 0.0971,0.18662 0.15083,0.2907 0.0539,0.10403 0.17469,0.29661 0.26857,0.42788 0.094,0.13125 0.2003,0.31506 0.23642,0.40845 0.0361,0.0933 0.1087,0.24697 0.16126,0.34132 0.0526,0.0944 0.14003,0.26126 0.19432,0.37094 0.0544,0.10964 0.2346,0.44378 0.40067,0.74254 0.16604,0.2987 0.33171,0.62753 0.36815,0.73072 0.0365,0.10313 0.13589,0.23346 0.22103,0.28949 0.0851,0.056 0.16642,0.14749 0.18064,0.2032 0.0141,0.0557 0.16098,0.26657 0.32609,0.46861 0.16577,0.20286 0.29731,0.41831 0.29379,0.48115 -0.004,0.0626 0.0145,0.12867 0.0401,0.14688 0.0409,0.0292 0.0957,0.3557 0.0851,0.50663 -0.0142,0.20011 -0.10186,0.51959 -0.14221,0.51724 -0.0266,-0.002 -0.05,0.0262 -0.052,0.0617 -0.002,0.0355 -0.0469,0.10798 -0.0997,0.16108 -0.0529,0.0531 -0.11044,0.18778 -0.12795,0.29934 -0.0176,0.11152 -0.0371,0.20724 -0.0435,0.2127 -0.0255,0.0222 -0.67791,0.007 -0.88508,-0.0199 z m 113.05005,5.44451 c -0.10908,-0.0689 -0.16713,-0.0783 -0.22268,-0.0365 -0.0559,0.0421 -0.0951,0.0336 -0.15333,-0.0331 -0.043,-0.0492 -0.14076,-0.093 -0.21721,-0.0975 -0.0764,-0.004 -0.18427,-0.0599 -0.2396,-0.12323 -0.0554,-0.0634 -0.16447,-0.13546 -0.24248,-0.16035 -0.22417,-0.0715 -0.71723,-0.63693 -0.77645,-0.89042 -0.028,-0.12026 -0.089,-0.23609 -0.13538,-0.25741 -0.0497,-0.0228 -0.0691,-0.073 -0.0475,-0.12221 0.0202,-0.046 0.006,-0.17352 -0.0323,-0.2836 -0.16355,-0.47369 0.14852,-1.06186 0.53212,-1.00293 0.15376,0.0235 0.15839,0.0207 0.0408,-0.0253 -0.12817,-0.0502 -0.1264,-0.0525 0.0522,-0.0701 0.13355,-0.0132 0.20553,0.0102 0.25931,0.0814 0.041,0.0548 0.11934,0.0904 0.17422,0.0792 0.13087,-0.0268 0.32588,0.18421 0.29547,0.31976 -0.0133,0.0584 0.007,0.14856 0.044,0.20013 0.0374,0.0516 0.0687,0.1698 0.0698,0.26272 0.001,0.10317 0.0476,0.20564 0.11896,0.26312 0.0643,0.0518 0.13552,0.15406 0.15819,0.22724 0.0226,0.0731 0.13396,0.20063 0.24729,0.28321 0.11332,0.0826 0.22023,0.17688 0.2376,0.20953 0.0706,0.13289 0.44272,0.086 0.73865,-0.0929 0.16055,-0.0971 0.31125,-0.17547 0.33486,-0.1741 0.0236,10e-4 0.0269,-0.0917 0.007,-0.20705 -0.0476,-0.2811 -0.0487,-0.27654 0.0702,-0.30095 0.10684,-0.0218 0.11818,-0.0616 0.15594,-0.54542 0.0157,-0.19043 -0.009,-0.31024 -0.0871,-0.43156 -0.0592,-0.0923 -0.10663,-0.18753 -0.10529,-0.21151 0.001,-0.024 -0.21592,-0.25546 -0.48282,-0.51444 -0.26688,-0.25898 -0.48563,-0.49218 -0.4861,-0.51825 -5.4e-4,-0.026 -0.0553,-0.12157 -0.12175,-0.21222 -0.0736,-0.10048 -0.11715,-0.23582 -0.11127,-0.34638 0.005,-0.1 -0.0356,-0.32966 -0.091,-0.51068 -0.0736,-0.24059 -0.0837,-0.3446 -0.0375,-0.38667 0.0348,-0.0317 0.0686,-0.15343 0.0751,-0.27063 0.0125,-0.22323 0.23776,-0.74597 0.31938,-0.74121 0.026,0.001 0.0494,-0.0326 0.0518,-0.076 0.002,-0.0434 0.0367,-0.11074 0.0762,-0.14983 0.0396,-0.0391 0.10112,-0.11816 0.13696,-0.17573 0.036,-0.0577 0.10283,-0.16476 0.14893,-0.23812 0.25156,-0.40082 0.44313,-0.55389 0.79687,-0.63673 0.1925,-0.0452 0.38753,-0.0981 0.43337,-0.11811 0.12601,-0.0546 0.8146,-0.0244 0.88343,0.0388 0.0653,0.06 0.54303,0.18129 0.87579,0.22241 0.0359,0.004 0.11015,0.0632 0.16505,0.13073 0.0549,0.0674 0.17967,0.1439 0.27727,0.16992 0.11016,0.0294 0.1952,0.0951 0.22416,0.17335 0.0257,0.0694 0.0894,0.14271 0.14168,0.16306 0.0523,0.0203 0.13892,0.14836 0.19258,0.2845 0.0537,0.13614 0.1303,0.27867 0.17034,0.3167 0.04,0.038 0.0707,0.10956 0.0681,0.15891 -0.003,0.0494 0.0276,0.16296 0.0672,0.25243 0.0869,0.19681 0.073,0.53109 -0.0274,0.6506 -0.0582,0.0693 -0.11847,0.076 -0.29401,0.0326 -0.27059,-0.0669 -0.44347,-0.19156 -0.82199,-0.59231 -0.20551,-0.2176 -0.32216,-0.30176 -0.39272,-0.28337 -0.0703,0.0184 -0.10929,-0.009 -0.13015,-0.0927 -0.0163,-0.0653 -0.0444,-0.1056 -0.0622,-0.0894 -0.0522,0.0475 -0.17105,-0.0933 -0.16529,-0.19611 0.005,-0.0806 -0.0401,-0.0937 -0.30673,-0.0905 -0.17163,0.002 -0.36342,0.0256 -0.42622,0.0524 -0.0628,0.0267 -0.1368,0.0407 -0.16441,0.0307 -0.17885,-0.0638 -0.52271,0.2629 -0.87115,0.82749 -0.12956,0.20994 -0.11675,0.58123 0.026,0.75769 0.0697,0.0861 0.12562,0.17753 0.12418,0.20311 -0.005,0.0853 0.29063,0.40717 0.37839,0.41229 0.0476,0.003 0.1689,0.10942 0.26952,0.23699 0.10063,0.12758 0.21498,0.23383 0.25411,0.23611 0.0392,0.002 0.0838,0.0548 0.0993,0.11646 0.0155,0.0618 0.0488,0.11345 0.074,0.11492 0.0856,0.005 0.42363,0.4584 0.55974,0.75085 0.11895,0.25554 0.13324,0.35666 0.11685,0.8266 -0.0199,0.57426 -0.13807,0.94362 -0.42305,1.32366 -0.0726,0.0969 -0.14998,0.21664 -0.17176,0.26605 -0.0406,0.0919 -0.55411,0.34577 -0.68439,0.33817 -0.0399,-0.002 -0.14438,0.0476 -0.23224,0.11092 -0.35089,0.25291 -0.82062,0.37628 -1.0021,0.26316 -0.0693,-0.0433 -0.11706,-0.0473 -0.14126,-0.0124 -0.0554,0.0808 -0.4699,0.0349 -0.63696,-0.0706 z m -109.51477,-8.0724 c -0.0875,-0.0593 -0.38433,-0.71977 -0.37757,-0.84046 0.002,-0.0356 -0.0423,-0.11703 -0.0983,-0.18114 -0.0561,-0.0642 -0.0993,-0.16319 -0.0961,-0.22014 0.003,-0.0569 -0.0289,-0.13653 -0.0714,-0.17689 -0.0425,-0.0405 -0.0761,-0.1013 -0.0746,-0.13559 0.002,-0.0343 -0.0614,-0.20286 -0.1395,-0.37478 -0.0781,-0.1719 -0.16562,-0.3761 -0.19434,-0.4538 -0.0288,-0.0777 -0.0822,-0.18036 -0.11893,-0.22822 -0.0367,-0.0478 -0.0795,-0.17485 -0.0955,-0.28226 -0.0303,-0.20514 -0.22313,-0.70143 -0.32985,-0.84906 -0.0346,-0.0476 -0.0834,-0.1648 -0.10897,-0.26031 -0.0255,-0.0956 -0.13686,-0.34732 -0.24745,-0.55948 -0.11062,-0.21215 -0.2005,-0.39664 -0.19975,-0.40995 7.4e-4,-0.0133 -0.0659,-0.19516 -0.14816,-0.40408 -0.0823,-0.20889 -0.18551,-0.50566 -0.22949,-0.65947 -0.044,-0.15382 -0.10587,-0.29019 -0.13755,-0.30307 -0.0316,-0.0127 -0.0562,-0.0483 -0.0545,-0.0784 0.008,-0.13868 -0.44778,-1.17247 -0.5284,-1.19907 -0.0493,-0.0161 -0.0873,-0.0702 -0.0846,-0.11981 0.003,-0.0497 -0.0556,-0.23692 -0.12965,-0.41623 -0.0741,-0.1793 -0.15683,-0.38952 -0.18386,-0.46715 -0.027,-0.0776 -0.0763,-0.18008 -0.10939,-0.22766 -0.0332,-0.0475 -0.0809,-0.18955 -0.10644,-0.3155 -0.0253,-0.12598 -0.0924,-0.27687 -0.14894,-0.33536 -0.0565,-0.0584 -0.10044,-0.14715 -0.0976,-0.19703 0.003,-0.0499 -0.0136,-0.11545 -0.0366,-0.1457 -0.0229,-0.0304 -0.0687,-0.16858 -0.10175,-0.30742 -0.033,-0.13886 -0.10066,-0.3142 -0.15027,-0.38965 -0.0497,-0.0754 -0.0876,-0.18969 -0.0846,-0.25387 0.004,-0.0642 -0.093,-0.308 -0.21366,-0.54183 -0.1206,-0.23385 -0.2172,-0.46219 -0.21466,-0.50744 0.003,-0.0452 -0.0509,-0.18019 -0.11878,-0.29987 -0.31046,-0.54765 -0.36437,-0.65155 -0.37617,-0.72498 -0.007,-0.0433 -0.0991,-0.16967 -0.20461,-0.28114 -0.10561,-0.11148 -0.18954,-0.24641 -0.18654,-0.29981 0.003,-0.0534 -0.0308,-0.13159 -0.0751,-0.1737 -0.0887,-0.0843 -0.24585,-0.40436 -0.227,-0.46254 0.006,-0.02 -0.11848,-0.20414 -0.27777,-0.40875 -0.1593,-0.20462 -0.32529,-0.44989 -0.36886,-0.54505 -0.0437,-0.0952 -0.20376,-0.2856 -0.35591,-0.42316 -0.15213,-0.13759 -0.31256,-0.3133 -0.35645,-0.39046 -0.044,-0.0771 -0.23383,-0.28088 -0.422,-0.45265 -0.30341,-0.27698 -0.3789,-0.31843 -0.66701,-0.36626 -0.17867,-0.0296 -0.36805,-0.0808 -0.42085,-0.11379 -0.0922,-0.0574 -0.0904,-0.0735 0.0452,-0.40653 0.0776,-0.19071 0.18406,-0.40238 0.2367,-0.47039 0.0527,-0.0679 0.0979,-0.16506 0.10077,-0.21568 0.005,-0.0892 0.23238,-0.17692 0.37415,-0.14442 0.0367,0.008 0.0683,-0.009 0.07,-0.0389 0.003,-0.0553 0.1904,-0.0768 0.82297,-0.0942 0.35046,-0.0102 0.36367,-0.005 0.69079,0.24529 0.18345,0.14034 0.41859,0.35967 0.52255,0.48744 0.71245,0.8756 0.96436,1.24582 1.00866,1.48232 0.0152,0.0809 0.11209,0.24707 0.21548,0.36931 0.24588,0.29083 0.39757,0.52554 0.48292,0.74733 0.0658,0.17116 0.47607,0.9537 0.67391,1.2856 0.0509,0.0854 0.0909,0.18341 0.089,0.21777 -0.002,0.0344 0.0417,0.12838 0.0967,0.20895 0.0552,0.0806 0.0978,0.18973 0.0949,0.24261 -0.003,0.0528 0.0293,0.1291 0.0719,0.16943 0.0425,0.0405 0.0755,0.10368 0.0735,0.14082 -0.002,0.037 0.0424,0.11515 0.0988,0.17351 0.0564,0.0584 0.10078,0.13664 0.0986,0.17396 -0.002,0.0373 0.0286,0.14104 0.0681,0.23052 0.0396,0.0894 0.0697,0.20428 0.067,0.25521 -0.003,0.0509 0.0236,0.12715 0.0586,0.16938 0.0656,0.0794 0.11159,0.17732 0.55597,1.18429 0.14472,0.32788 0.27992,0.62206 0.30043,0.65369 0.0206,0.0315 0.0622,0.17783 0.0924,0.3249 0.0302,0.14708 0.0754,0.28188 0.10006,0.29952 0.0247,0.0176 0.0423,0.0807 0.0389,0.14026 -0.003,0.0595 0.0512,0.21349 0.12115,0.34232 0.0699,0.1288 0.13506,0.29955 0.14468,0.37939 0.0156,0.1302 0.10541,0.36728 0.33515,0.88559 0.19771,0.44604 0.25611,0.61011 0.27664,0.77711 0.0123,0.0996 0.0926,0.35913 0.17866,0.57711 0.086,0.21801 0.222,0.59928 0.30206,0.84726 0.0801,0.248 0.17826,0.49224 0.21818,0.54276 0.0401,0.0506 0.0579,0.10521 0.04,0.1216 -0.0388,0.0352 0.14148,0.4705 0.2175,0.52477 0.029,0.0209 0.0477,0.13061 0.0413,0.24404 -0.006,0.11344 0.009,0.23115 0.0345,0.2615 0.0252,0.0305 0.0658,0.14354 0.09,0.25144 0.0606,0.27081 0.14139,0.5467 0.24302,0.82957 0.0473,0.13172 0.084,0.27553 0.0816,0.31956 -0.002,0.044 0.0155,0.0943 0.0399,0.11176 0.0245,0.0175 0.0816,0.15295 0.12698,0.30112 0.0455,0.14814 0.14502,0.43419 0.22139,0.63562 0.12468,0.32903 0.13138,0.38713 0.0657,0.57175 -0.0591,0.16579 -0.12104,0.22514 -0.32111,0.30719 -0.13641,0.056 -0.26252,0.12291 -0.28026,0.14876 -0.0424,0.0619 -0.24617,0.0452 -0.35612,-0.0291 z m 104.55048,5.52109 c -0.0292,-0.0119 -0.11306,-0.0389 -0.18643,-0.06 -0.16228,-0.0467 -0.63428,-0.48454 -0.57784,-0.53586 0.0222,-0.0202 -0.003,-0.0729 -0.0554,-0.11709 -0.0527,-0.0443 -0.0773,-0.1071 -0.055,-0.13978 0.0224,-0.0325 0.008,-0.14134 -0.0319,-0.24147 -0.04,-0.10007 -0.0936,-0.25042 -0.11959,-0.33398 -0.0452,-0.1457 -0.0535,-0.14899 -0.20236,-0.0804 -0.0853,0.0394 -0.22946,0.0672 -0.32016,0.0621 -0.0907,-0.005 -0.19506,0.0182 -0.23198,0.0518 -0.0444,0.0405 -0.30325,0.0474 -0.7658,0.0206 -0.56744,-0.0331 -0.72408,-0.0597 -0.83393,-0.1426 -0.0744,-0.0561 -0.13324,-0.13799 -0.13078,-0.18184 0.003,-0.0452 -0.0285,-0.0688 -0.072,-0.0548 -0.13648,0.0445 -0.44487,-0.15412 -0.80147,-0.51617 -0.80752,-0.81986 -0.78001,-0.78411 -0.8296,-1.07779 -0.0258,-0.15365 -0.0657,-0.33023 -0.0883,-0.39239 -0.0682,-0.18696 -0.0273,-0.6297 0.11425,-1.23804 0.0442,-0.18963 0.29599,-0.60199 0.38608,-0.63208 0.0258,-0.009 0.0499,-0.0672 0.0535,-0.12997 0.004,-0.0628 0.0717,-0.19204 0.15166,-0.28711 0.0798,-0.095 0.14805,-0.22266 0.15146,-0.28355 0.006,-0.1099 0.51676,-0.64061 0.61101,-0.63511 0.0271,0.002 0.11943,-0.0564 0.20528,-0.12872 0.0859,-0.0723 0.18616,-0.12476 0.22289,-0.11644 0.0367,0.008 0.14152,-0.0119 0.23284,-0.0449 0.0913,-0.033 0.19066,-0.0638 0.22075,-0.0684 0.16518,-0.0257 0.30297,-0.0841 0.3055,-0.12916 0.002,-0.0282 0.0651,-0.0478 0.1412,-0.0434 0.0774,0.004 0.12512,-0.0167 0.10836,-0.0483 -0.0173,-0.0329 0.005,-0.0402 0.0547,-0.0176 0.0466,0.0213 0.11589,0.004 0.15418,-0.04 0.11471,-0.12985 0.38929,-0.17762 0.64628,-0.1124 0.23208,0.0589 0.99324,0.21808 1.19885,0.25074 0.0581,0.009 0.14663,0.0628 0.1967,0.11892 0.05,0.0562 0.15181,0.10566 0.22612,0.11 0.08,0.005 0.13337,0.0396 0.13081,0.0852 -0.006,0.11499 0.30347,0.49328 0.40917,0.49944 0.089,0.005 0.35426,-0.0754 0.67968,-0.20654 0.0879,-0.0355 0.22899,-0.0492 0.31344,-0.0305 0.0844,0.0187 0.20795,0.0438 0.27442,0.0558 0.30644,0.0555 0.4385,0.26777 0.46556,0.74857 0.0157,0.28038 0.0145,0.28282 -0.31045,0.60822 -0.17946,0.17968 -0.37126,0.32409 -0.42621,0.32088 -0.055,-0.003 -0.11817,0.043 -0.14043,0.10244 -0.0223,0.0596 -0.0754,0.10626 -0.11793,0.10378 -0.0426,-0.002 -0.0791,0.0267 -0.0813,0.065 -0.002,0.0383 -0.072,0.13641 -0.15543,0.21817 -0.25366,0.24893 -0.67471,1.04852 -0.68938,1.30918 -0.004,0.0686 -0.0606,0.2271 -0.12604,0.35224 -0.0655,0.12516 -0.13068,0.28911 -0.14491,0.36434 -0.0142,0.0752 -0.0577,0.18833 -0.0965,0.25135 -0.0567,0.092 -0.0558,0.12863 0.005,0.18633 0.0417,0.0395 0.065,0.0871 0.0522,0.10598 -0.0236,0.0344 -0.004,0.0852 0.32405,0.84711 0.14022,0.3255 0.16843,0.44802 0.12914,0.56071 -0.0496,0.1423 -0.0628,0.20269 -0.0913,0.41844 -0.007,0.0605 -0.0917,0.14883 -0.18613,0.19658 -0.17251,0.0872 -0.19898,0.0919 -0.29645,0.0523 z m -1.71024,-2.86549 c 0.41454,-0.0246 0.41646,-0.0267 0.49003,-0.54185 0.0375,-0.26256 0.0728,-0.51887 0.0785,-0.56956 0.006,-0.0506 0.0287,-0.079 0.0513,-0.063 0.0224,0.0161 0.0436,-0.0171 0.0468,-0.0737 0.003,-0.0566 0.0442,-0.14907 0.0911,-0.20539 0.047,-0.0563 0.0884,-0.14387 0.0923,-0.19457 0.004,-0.0507 0.072,-0.16255 0.15165,-0.24858 0.21523,-0.23255 0.3271,-0.49247 0.26798,-0.62255 -0.0339,-0.0745 -0.03,-0.11792 0.0129,-0.14157 0.0432,-0.0239 0.0398,-0.0676 -0.0116,-0.14579 -0.0404,-0.0614 -0.0718,-0.15283 -0.07,-0.20319 0.002,-0.0504 -0.0986,-0.21159 -0.22322,-0.35833 -0.20274,-0.23866 -0.24163,-0.262 -0.36877,-0.22097 -0.0781,0.0252 -0.2101,0.1031 -0.29314,0.17312 -0.0831,0.07 -0.1707,0.11325 -0.19474,0.0961 -0.024,-0.0172 -0.12164,0.0282 -0.21687,0.10099 -0.0952,0.0726 -0.21387,0.13023 -0.26365,0.1279 -0.14159,-0.006 -0.55839,0.26984 -0.99542,0.66039 -0.61258,0.54746 -0.87859,0.88354 -0.74295,0.93861 0.0359,0.0147 0.0639,0.0507 0.0622,0.0803 -0.002,0.0296 -0.0264,0.037 -0.0552,0.0165 -0.0286,-0.0203 -0.0544,0.002 -0.057,0.0487 -0.003,0.0472 0.0164,0.0872 0.0424,0.0888 0.0259,0.001 0.0569,0.0998 0.0686,0.21837 0.0172,0.17262 0.0535,0.23141 0.182,0.29471 0.0882,0.0435 0.21227,0.15513 0.27555,0.24807 0.0648,0.0952 0.17678,0.17962 0.25627,0.19327 0.0777,0.0128 0.20648,0.0751 0.28624,0.13732 0.27004,0.21064 0.27349,0.21119 1.03684,0.1659 z m -98.57907,-4.01891 c -0.0725,-0.0361 -0.18463,-0.0721 -0.24909,-0.0801 -0.14173,-0.0174 -0.34953,-0.35263 -0.44562,-0.71832 -0.0376,-0.14293 -0.18473,-0.54119 -0.32706,-0.88504 -0.14231,-0.34382 -0.25658,-0.66166 -0.25395,-0.70631 0.008,-0.14548 -0.22851,-1.03157 -0.31533,-1.17856 -0.0466,-0.0788 -0.0997,-0.20452 -0.11793,-0.27941 -0.0822,-0.33641 -1.08799,-1.64219 -1.23776,-1.607 -0.046,0.0109 -0.12716,0.0351 -0.18042,0.0539 -0.0774,0.0272 -0.0953,0.006 -0.0888,-0.1083 0.005,-0.0911 -0.0389,-0.17785 -0.1221,-0.24068 -0.0715,-0.0541 -0.12777,-0.13914 -0.12496,-0.18916 0.003,-0.05 -0.0409,-0.192 -0.0971,-0.31551 -0.0818,-0.1797 -0.0928,-0.28372 -0.0554,-0.52088 0.0542,-0.34224 0.20572,-0.52508 0.46839,-0.56502 0.094,-0.0143 0.23038,-0.0599 0.3031,-0.1012 0.0727,-0.0413 0.19027,-0.0602 0.26123,-0.0421 0.071,0.0182 0.14268,0.0135 0.15938,-0.011 0.0424,-0.0617 0.4652,0.004 0.61899,0.0963 0.07,0.0421 0.23413,0.19456 0.36484,0.33919 0.22205,0.24567 0.35492,0.29088 0.36427,0.12392 0.005,-0.0925 0.28124,-0.55581 0.39036,-0.65508 0.0464,-0.0422 0.0864,-0.11234 0.0888,-0.15566 0.002,-0.0433 0.0336,-0.077 0.0694,-0.075 0.0358,0.002 0.14315,-0.0639 0.23867,-0.14649 0.24152,-0.20898 0.58459,-0.35868 0.79396,-0.34646 0.0971,0.006 0.17802,-0.0175 0.17994,-0.0516 0.002,-0.042 0.0241,-0.043 0.068,-0.003 0.0355,0.0323 0.1851,0.084 0.3325,0.11468 0.34177,0.071 0.40797,0.11161 0.84733,0.51966 0.041,0.038 0.0923,0.0105 0.16178,-0.0847 0.0965,-0.13283 0.12107,-0.21087 0.15252,-0.48192 0.0134,-0.11379 0.31626,-0.44615 0.40227,-0.44114 0.0242,10e-4 0.10477,-0.0561 0.17884,-0.12785 0.074,-0.0717 0.16089,-0.12993 0.19294,-0.12932 0.0319,0.002 0.1466,-0.0674 0.25454,-0.15108 0.10798,-0.0838 0.24587,-0.14952 0.30645,-0.14616 0.0606,0.003 0.18237,-0.0272 0.2706,-0.0677 0.37184,-0.17101 1.53399,0.11324 1.74931,0.4281 0.0521,0.0759 0.1488,0.1559 0.21518,0.17763 0.0664,0.0217 0.1736,0.13035 0.23835,0.24141 0.0647,0.11102 0.13885,0.2031 0.16476,0.20461 0.0259,10e-4 0.0444,0.0515 0.0411,0.1111 -0.003,0.0596 0.0471,0.14123 0.11184,0.18145 0.1967,0.122 0.50495,0.42414 0.50118,0.49129 -0.002,0.0347 0.0394,0.16868 0.0917,0.29769 0.0525,0.12902 0.0939,0.26058 0.0921,0.29236 -0.002,0.0317 0.0164,0.059 0.0407,0.0604 0.024,10e-4 0.0789,0.15289 0.12185,0.33661 0.0429,0.18375 0.11058,0.36499 0.15037,0.40278 0.0398,0.0378 0.0703,0.10531 0.0678,0.15015 -0.003,0.0448 0.0245,0.16153 0.0602,0.25951 0.0357,0.0979 0.10099,0.30466 0.14529,0.45938 0.0443,0.15472 0.14241,0.43428 0.21801,0.62124 0.0756,0.18696 0.14137,0.3775 0.1462,0.42343 0.004,0.0458 0.0707,0.1592 0.1464,0.25172 0.0757,0.0925 0.13596,0.19769 0.13394,0.23373 -0.002,0.036 0.0832,0.17317 0.18933,0.30484 0.14739,0.18277 0.22129,0.23354 0.31268,0.21477 0.0857,-0.0175 0.12733,0.005 0.14679,0.0801 0.0634,0.24427 0.18772,0.47069 0.29537,0.53778 0.0987,0.0616 0.11132,0.1123 0.0867,0.35163 -0.0156,0.1538 -0.0542,0.28669 -0.0853,0.29528 -0.0329,0.009 -0.0512,0.11665 -0.0436,0.25729 0.0141,0.2612 0.0181,0.25784 -0.36801,0.31384 -0.16651,0.0242 -0.18441,0.009 -0.33681,-0.27961 -0.0885,-0.16783 -0.18545,-0.35577 -0.21538,-0.41762 -0.0336,-0.0694 -0.0992,-0.10843 -0.17101,-0.10191 -0.0768,0.007 -0.12809,-0.028 -0.15043,-0.10231 -0.0337,-0.11213 -0.0456,-0.12018 -0.18965,-0.12858 -0.0883,-0.005 -0.75197,-0.7202 -0.74722,-0.80503 0.002,-0.0318 -0.0926,-0.19689 -0.20993,-0.36662 -0.32877,-0.47598 -0.43706,-0.66755 -0.43167,-0.76359 0.003,-0.0485 -0.0607,-0.18389 -0.1409,-0.30089 -0.0802,-0.11698 -0.18595,-0.30217 -0.23502,-0.41151 -0.0491,-0.10937 -0.16931,-0.34044 -0.26726,-0.51348 -0.0979,-0.17305 -0.27271,-0.50687 -0.38835,-0.7418 -0.11567,-0.23494 -0.25816,-0.47078 -0.3167,-0.52403 -0.0585,-0.0534 -0.17001,-0.16468 -0.24776,-0.24758 -0.0777,-0.0828 -0.17436,-0.13993 -0.21468,-0.12678 -0.0403,0.0132 -0.10237,-0.0162 -0.13786,-0.0654 -0.0826,-0.11428 -0.20645,-0.12173 -0.25353,-0.0148 -0.0201,0.0456 -0.11493,0.11756 -0.21061,0.15998 -0.31503,0.13953 -0.41082,0.2782 -0.67817,0.98171 -0.0636,0.1673 -0.0991,0.47913 -0.12426,1.09102 -0.004,0.0748 0.0603,0.30258 0.14068,0.50609 0.0805,0.20351 0.15316,0.41891 0.16156,0.47862 0.008,0.0598 0.0685,0.2375 0.13366,0.39504 0.14137,0.34202 0.19105,0.60601 0.20844,1.10764 0.0134,0.38827 -0.0296,0.45474 -0.18115,0.2811 -0.0575,-0.0658 -0.0987,-0.073 -0.17398,-0.0311 -0.1132,0.0632 -0.41962,-0.0897 -0.46408,-0.23163 -0.014,-0.0449 -0.0594,-0.0835 -0.10086,-0.0859 -0.0544,-0.003 -0.071,-0.0813 -0.0598,-0.28084 0.0145,-0.25932 -0.0258,-0.41175 -0.1637,-0.6173 -0.0318,-0.0475 -0.0806,-0.19903 -0.10847,-0.33676 -0.0279,-0.13771 -0.10503,-0.32461 -0.17158,-0.41532 -0.0665,-0.0907 -0.11887,-0.20202 -0.11634,-0.24733 0.003,-0.0454 -0.0283,-0.12022 -0.0688,-0.16641 -0.0404,-0.0462 -0.0822,-0.20243 -0.093,-0.34722 -0.0343,-0.45922 -0.50702,-1.3438 -0.76003,-1.42196 -0.0732,-0.0226 -0.1714,-0.079 -0.21805,-0.12529 -0.0542,-0.0538 -0.0982,-0.0646 -0.12201,-0.0299 -0.0205,0.0298 -0.16182,0.11428 -0.31417,0.18767 -0.1523,0.0734 -0.2788,0.16674 -0.28108,0.20742 -0.002,0.0407 -0.0346,0.0729 -0.0718,0.0717 -0.0428,-0.002 -0.036,0.0254 0.0186,0.0732 0.0476,0.0415 0.0961,0.1833 0.10791,0.3152 0.0172,0.19269 -3.2e-4,0.26171 -0.0901,0.35135 -0.14124,0.14124 -0.23566,0.68785 -0.1792,1.03747 0.0227,0.14059 0.0939,0.34533 0.1582,0.45495 0.0983,0.16756 0.10873,0.23888 0.0656,0.44721 -0.0282,0.13633 -0.0331,0.28111 -0.011,0.3217 0.0223,0.0407 0.0378,0.12665 0.0346,0.19119 -0.004,0.0646 0.0261,0.14763 0.0651,0.18462 0.039,0.0371 0.0803,0.16261 0.0919,0.27912 0.0115,0.11649 0.0775,0.2871 0.14648,0.37908 0.19299,0.25752 0.32191,0.87619 0.30558,1.46638 -0.0138,0.50144 -0.0166,0.51131 -0.17042,0.61002 -0.11641,0.0748 -0.17103,0.0834 -0.21401,0.0343 -0.0431,-0.0493 -0.0846,-0.0441 -0.16305,0.0204 -0.11807,0.097 -0.30166,0.0966 -0.49856,-10e-4 z m 92.12064,4.11229 c -0.071,-0.0637 -0.17037,-0.10522 -0.22084,-0.0925 -0.0532,0.0134 -0.1637,-0.0487 -0.26289,-0.14719 -0.0941,-0.0935 -0.20378,-0.16059 -0.24371,-0.14897 -0.0411,0.0119 -0.083,-0.032 -0.0967,-0.1015 -0.0188,-0.0952 -0.0367,-0.10683 -0.0799,-0.052 -0.039,0.0495 -0.042,0.0383 -0.01,-0.0372 0.0251,-0.0595 0.0457,-0.1685 0.0456,-0.24247 -8.7e-4,-0.0741 0.0487,-0.18316 0.1082,-0.24264 0.0595,-0.0595 0.14403,-0.20559 0.18777,-0.32475 0.0437,-0.11915 0.10032,-0.25424 0.12578,-0.30021 0.0254,-0.0459 0.0829,-0.22309 0.12771,-0.39362 0.0448,-0.17052 0.0992,-0.309 0.1208,-0.30774 0.0565,0.003 0.18826,-0.33042 0.19782,-0.50083 0.004,-0.0795 0.0312,-0.15733 0.0598,-0.17302 0.0283,-0.0156 0.0717,-0.10181 0.0964,-0.19124 0.0245,-0.0895 0.0643,-0.16158 0.0882,-0.16018 0.0521,0.003 0.24608,-0.48568 0.25485,-0.64227 0.003,-0.0607 0.0314,-0.12438 0.0622,-0.14138 0.0307,-0.0168 0.0594,-0.0852 0.0635,-0.15169 0.004,-0.0665 0.0535,-0.23009 0.10958,-0.36375 0.0772,-0.18381 0.1171,-0.47113 0.16396,-1.1798 0.0637,-0.95672 0.0912,-1.06881 0.31157,-1.25003 0.0982,-0.0807 0.14052,-0.0858 0.23709,-0.0284 0.0647,0.0384 0.21408,0.0822 0.33201,0.0975 0.19662,0.0254 0.22532,0.0513 0.34545,0.31207 0.0819,0.17778 0.12719,0.37311 0.12081,0.52151 -0.005,0.13049 0.0245,0.31677 0.0672,0.41397 0.0426,0.0972 0.0733,0.26579 0.0682,0.37463 -0.0197,0.42323 -0.13207,1.17295 -0.18446,1.23042 -0.12626,0.13835 -0.3734,0.80987 -0.4127,1.12141 -0.0232,0.18431 -0.0711,0.36137 -0.10633,0.39339 -0.0351,0.0319 -0.0672,0.11447 -0.071,0.18316 -0.004,0.0688 -0.0501,0.23359 -0.1028,0.36644 -0.0527,0.13287 -0.1171,0.38344 -0.14305,0.55686 -0.0259,0.17342 -0.0695,0.35302 -0.0968,0.39914 -0.0271,0.0461 -0.10118,0.27125 -0.16447,0.50028 -0.12771,0.46245 -0.23257,0.58707 -0.58301,0.69305 -0.12137,0.0366 -0.25799,0.0799 -0.30364,0.096 -0.0457,0.016 -0.14108,-0.0225 -0.21207,-0.0861 z m -4.11452,-1.57306 c -0.14521,-0.0699 -0.37616,-0.19459 -0.51321,-0.27709 -0.13706,-0.0824 -0.30888,-0.15347 -0.38178,-0.15772 -0.19801,-0.0115 -0.40332,-0.13717 -0.63159,-0.3864 -0.11243,-0.12275 -0.25529,-0.27704 -0.31748,-0.34289 -0.12505,-0.13238 -0.37674,-0.73443 -0.41877,-1.00173 -0.0148,-0.0941 -0.0728,-0.28069 -0.12897,-0.41459 -0.0576,-0.13736 -0.101,-0.37594 -0.0997,-0.54755 0.0125,-1.58797 0.019,-1.67408 0.16256,-2.14605 0.0776,-0.25515 0.16182,-0.4876 0.18717,-0.51656 0.0253,-0.0289 0.07,-0.17569 0.0994,-0.32611 0.0293,-0.15041 0.14836,-0.45139 0.26463,-0.66882 0.18064,-0.33782 0.46218,-0.97169 0.45261,-1.01904 -0.002,-0.008 0.0502,-0.12084 0.11517,-0.25021 0.065,-0.1294 0.15349,-0.32917 0.19664,-0.44397 0.0432,-0.11479 0.10314,-0.26513 0.13344,-0.33411 0.0302,-0.0691 0.0413,-0.15125 0.0245,-0.18284 -0.0168,-0.0315 0.0343,-0.12012 0.11349,-0.19668 0.0791,-0.0765 0.19037,-0.25786 0.24707,-0.40287 0.0567,-0.145 0.14173,-0.3136 0.189,-0.37467 0.0473,-0.0611 0.0883,-0.15553 0.0914,-0.20984 0.003,-0.0543 0.0291,-0.14061 0.0577,-0.19177 0.0995,-0.1773 0.20938,-0.47246 0.28204,-0.75726 0.0402,-0.15741 0.0925,-0.28505 0.11632,-0.28366 0.0238,10e-4 0.0314,-0.0356 0.0168,-0.082 -0.0145,-0.0465 -0.004,-0.0832 0.0234,-0.0816 0.14901,0.009 0.40861,-0.67848 0.31962,-0.84603 -0.0183,-0.0347 0.0147,-0.1024 0.0733,-0.15069 0.13149,-0.10813 0.16924,-0.26373 0.2595,-1.06936 0.0654,-0.58287 0.0626,-0.65356 -0.0334,-0.87606 -0.0804,-0.18633 -0.0965,-0.31859 -0.0697,-0.57471 l 0.0349,-0.3327 0.27908,-0.14174 c 0.36133,-0.18349 0.55704,-0.17152 0.84306,0.0513 0.12577,0.0979 0.25709,0.1804 0.29186,0.18299 0.0348,0.002 0.0755,0.0862 0.0905,0.18605 0.0151,0.0998 0.0564,0.22043 0.0918,0.26815 0.0661,0.0889 0.10432,0.37465 0.11535,0.86419 0.003,0.1523 0.0199,0.40963 0.0366,0.57181 0.0167,0.16215 0.0117,0.30513 -0.0108,0.31775 -0.0484,0.0267 -0.10062,0.25415 -0.20631,0.8978 -0.0421,0.25614 -0.0952,0.55176 -0.11798,0.65693 -0.0228,0.10517 -0.0608,0.32447 -0.0845,0.48732 -0.0236,0.16286 -0.0663,0.32217 -0.0948,0.35405 -0.0285,0.0318 -0.11456,0.24096 -0.19126,0.4647 -0.0767,0.2237 -0.16426,0.45507 -0.19454,0.51417 -0.0617,0.12028 -0.29017,0.6739 -0.57972,1.4045 -0.19718,0.49754 -0.33485,0.79494 -0.55521,1.19943 -0.0685,0.12588 -0.11197,0.24345 -0.0964,0.26125 0.0155,0.0177 0.10258,-10e-4 0.19338,-0.0429 0.0908,-0.0414 0.17986,-0.0583 0.19796,-0.0375 0.0449,0.0514 0.40937,0.20285 0.50916,0.21159 0.10721,0.009 0.32334,0.26895 0.45932,0.55161 0.075,0.15605 0.11071,0.35352 0.11325,0.6277 0.006,0.61538 -0.0664,0.67718 -0.83131,0.71133 -0.30395,0.0136 -0.41978,-0.0435 -0.68313,-0.33562 -0.13904,-0.15432 -0.266,-0.24321 -0.35478,-0.24839 -0.0761,-0.004 -0.12656,0.0139 -0.11226,0.041 0.0143,0.0269 -0.002,0.13175 -0.0377,0.23293 -0.0648,0.18739 -0.17662,0.63833 -0.27031,1.0893 -0.0285,0.13782 -0.0348,0.32418 -0.0132,0.41414 0.0211,0.09 0.0408,0.26326 0.0434,0.38513 0.006,0.26863 0.0667,0.6504 0.11949,0.74987 0.0213,0.0401 0.11884,0.11259 0.21687,0.16125 0.0981,0.0487 0.17684,0.11295 0.17516,0.14286 -0.004,0.0696 0.24368,0.085 0.37392,0.0239 0.11496,-0.0544 0.29115,0.13036 0.44443,0.46612 0.05,0.1094 0.12122,0.24229 0.15836,0.29532 0.10676,0.15238 0.099,0.71104 -0.0116,0.82208 -0.0568,0.057 -0.0714,0.10615 -0.0387,0.12954 0.0326,0.0234 0.003,0.12189 -0.0788,0.25952 -0.10747,0.1812 -0.18201,0.23657 -0.40721,0.30241 -0.34901,0.10208 -0.33447,0.10313 -0.64806,-0.048 z m -6.15913,-1.85958 c -0.10236,-0.0364 -0.40151,-0.0908 -0.66478,-0.12128 -0.29831,-0.0343 -0.56721,-0.10017 -0.71364,-0.17451 -0.12923,-0.0657 -0.25496,-0.10831 -0.27939,-0.0948 -0.0244,0.0134 -0.0697,-0.0497 -0.10066,-0.14003 -0.0309,-0.0905 -0.0886,-0.17947 -0.12825,-0.19767 -0.0397,-0.0182 -0.13264,-0.14366 -0.20678,-0.2788 -0.0741,-0.13514 -0.18518,-0.31089 -0.24674,-0.39054 -0.15658,-0.20257 -0.2507,-0.51048 -0.21436,-0.70132 0.0169,-0.0888 0.0115,-0.2136 -0.0122,-0.2773 -0.10301,-0.27783 -0.15988,-0.53047 -0.18363,-0.81554 -0.0139,-0.16816 -0.0632,-0.39257 -0.1093,-0.49866 -0.0671,-0.15432 -0.0699,-0.21304 -0.0141,-0.2935 0.0384,-0.0553 0.0524,-0.1317 0.031,-0.16976 -0.0326,-0.0583 -0.0374,-0.3148 -0.019,-1.00842 0.002,-0.0608 0.0428,-0.30731 0.0916,-0.54786 0.0488,-0.24055 0.0938,-0.47883 0.10015,-0.52947 0.006,-0.0506 0.0275,-0.0807 0.0469,-0.0667 0.076,0.0543 0.12125,-0.25999 0.0508,-0.35298 -0.0765,-0.10079 -0.053,-0.22455 0.0585,-0.30818 0.15409,-0.11553 0.49949,-0.62859 0.50642,-0.75225 0.004,-0.073 0.0717,-0.22456 0.15029,-0.33676 0.0786,-0.11224 0.17739,-0.31137 0.21958,-0.4425 0.0422,-0.13115 0.16833,-0.39076 0.28029,-0.57696 0.11195,-0.18617 0.21753,-0.39763 0.23461,-0.46988 0.0488,-0.20605 0.18534,-0.53003 0.26021,-0.61681 0.0766,-0.0888 0.17625,-0.32754 0.16346,-0.39154 -0.005,-0.0231 0.0159,-0.0407 0.0456,-0.039 0.0297,0.002 0.0575,-0.0574 0.0617,-0.13144 0.004,-0.0741 0.0348,-0.14966 0.0681,-0.16808 0.11003,-0.0608 0.27968,-0.47844 0.34018,-0.83751 0.0327,-0.19436 0.0802,-0.37705 0.10542,-0.406 0.0253,-0.0291 0.0576,-0.12666 0.0718,-0.21709 0.0141,-0.0904 0.0452,-0.18904 0.0687,-0.21912 0.0848,-0.10867 0.12296,-1.08932 0.0525,-1.35043 -0.12575,-0.46614 -0.12463,-0.63663 0.005,-0.76325 0.0646,-0.063 0.16454,-0.11195 0.22209,-0.10861 0.0875,0.005 0.10082,-0.0214 0.0814,-0.16121 -0.0206,-0.1491 -0.009,-0.16649 0.10786,-0.15967 0.0721,0.004 0.15894,-0.0177 0.19298,-0.0488 0.085,-0.0773 0.5346,-0.0443 0.73764,0.0542 0.19475,0.0944 0.65442,0.57111 0.64874,0.6726 -0.002,0.0384 0.0335,0.11234 0.079,0.16454 0.0627,0.0717 0.0717,0.15363 0.0368,0.33561 -0.0253,0.13241 -0.0271,0.25437 -0.004,0.27107 0.0597,0.0427 -0.007,0.78533 -0.0784,0.86851 -0.0323,0.0377 -0.0979,0.19072 -0.14591,0.34002 -0.0908,0.28272 -0.203,0.47115 -0.37304,0.62733 -0.0551,0.0505 -0.10152,0.11801 -0.10331,0.14996 -0.002,0.0318 -0.0692,0.14579 -0.14976,0.25305 -0.0805,0.10723 -0.14879,0.23581 -0.15159,0.28569 -0.003,0.0499 -0.0468,0.12212 -0.0978,0.16047 -0.051,0.0383 -0.14176,0.17027 -0.20176,0.29317 -0.06,0.12289 -0.13635,0.23849 -0.16967,0.25691 -0.0334,0.0184 -0.0631,0.0783 -0.0661,0.13308 -0.003,0.0548 -0.0578,0.15983 -0.12154,0.23347 -0.0638,0.0737 -0.11857,0.18029 -0.12175,0.23698 -0.003,0.0567 -0.0417,0.1501 -0.0852,0.20758 -0.0438,0.0575 -0.10275,0.2027 -0.13114,0.32275 -0.0284,0.12006 -0.0923,0.25946 -0.14191,0.30982 -0.0497,0.0505 -0.0724,0.0925 -0.0505,0.0938 0.0219,0.001 -0.0125,0.0801 -0.0772,0.17529 -0.1547,0.22851 -0.30272,0.61341 -0.35848,0.93209 -0.0248,0.14179 -0.0704,0.30008 -0.10138,0.35179 -0.0456,0.076 -0.0182,0.12271 0.14266,0.24415 0.17222,0.12995 0.21636,0.14191 0.32818,0.0891 0.11029,-0.0522 0.15418,-0.0424 0.2999,0.067 0.0979,0.0734 0.18114,0.19342 0.19513,0.28101 0.0134,0.0841 0.0461,0.16843 0.0726,0.18732 0.0264,0.0189 0.0436,0.11634 0.038,0.2166 -0.008,0.1488 -0.0494,0.20668 -0.22397,0.31555 -0.11756,0.0734 -0.25202,0.13113 -0.29881,0.12841 -0.0468,-0.003 -0.11673,0.0297 -0.15541,0.0721 -0.0521,0.057 -0.1731,0.0678 -0.46679,0.042 -0.23541,-0.0209 -0.42254,-0.0115 -0.46068,0.0229 -0.0653,0.059 -0.24767,1.26744 -0.25971,1.72096 -0.0105,0.3945 0.0775,1.4609 0.12352,1.49759 0.0229,0.0184 0.0703,0.11882 0.1051,0.22328 0.13814,0.41474 0.56208,0.68924 1.08369,0.70164 0.18422,0.005 0.36086,-0.006 0.39252,-0.0239 0.0316,-0.0176 0.10194,0.0189 0.15622,0.081 0.0577,0.066 0.11982,0.0937 0.14956,0.0666 0.0816,-0.0743 0.26133,0.10797 0.37026,0.37551 0.12607,0.30957 0.1229,0.34535 -0.0545,0.61715 -0.17444,0.26736 -0.37498,0.40086 -0.48996,0.32613 -0.0917,-0.0596 -0.34758,0.12042 -0.29957,0.21082 0.0335,0.063 0.005,0.0597 -0.24441,-0.0288 z m -94.26161,-5.5822 c -0.21664,-0.0362 -0.53016,-0.21188 -0.52628,-0.29486 0.004,-0.0665 -0.19242,-0.54178 -0.33604,-0.81668 -0.0832,-0.15945 -0.0963,-0.2907 -0.0745,-0.75118 l 0.0262,-0.55796 0.24471,-0.11339 c 0.29286,-0.13569 0.52921,-0.10279 0.74342,0.10344 0.0804,0.0774 0.27976,0.20544 0.44293,0.28435 0.16316,0.0788 0.29533,0.16645 0.29376,0.19459 -0.002,0.0281 0.0285,0.0457 0.0671,0.0391 0.18458,-0.0319 0.65129,0.84318 0.53703,1.0071 -0.0217,0.0311 -0.0514,0.11781 -0.0657,0.1925 -0.0326,0.17047 -0.0149,0.15953 -0.2621,0.16442 -0.17606,0.003 -0.21331,0.0256 -0.23568,0.14015 -0.0479,0.24465 -0.15327,0.36596 -0.33121,0.38114 -0.0938,0.008 -0.20783,0.0245 -0.25327,0.0367 -0.0454,0.0121 -0.16717,0.008 -0.27059,-0.009 z m 24.48045,0.90161 c -0.014,-0.0263 -0.1068,-0.0372 -0.20615,-0.0243 -0.10766,0.0141 -0.19409,-0.001 -0.21373,-0.0385 -0.018,-0.0342 -0.093,-0.0657 -0.16605,-0.07 -0.19184,-0.0112 -0.72369,-0.28073 -0.99417,-0.50381 -0.12781,-0.1054 -0.32803,-0.34314 -0.44495,-0.52828 -0.11692,-0.18515 -0.23401,-0.33787 -0.26021,-0.3394 -0.0263,-10e-4 -0.0318,-0.0385 -0.0127,-0.0819 0.0192,-0.0436 0.0133,-0.0943 -0.0122,-0.11283 -0.0259,-0.0186 -0.097,-0.25372 -0.15817,-0.52271 -0.0611,-0.26897 -0.1292,-0.56478 -0.15142,-0.65736 -0.0756,-0.31504 -0.0854,-0.63058 -0.0251,-0.81235 0.0582,-0.17567 0.0254,-0.88666 -0.047,-1.0174 -0.0529,-0.0957 0.5526,-1.16522 0.67378,-1.1901 0.0588,-0.0121 0.10804,-0.0428 0.10947,-0.0684 0.001,-0.0255 0.15851,-0.2157 0.34907,-0.42254 0.19054,-0.20684 0.34763,-0.39748 0.3491,-0.42367 0.001,-0.0262 0.1099,-0.11015 0.24094,-0.18663 0.13105,-0.0765 0.2889,-0.18057 0.35082,-0.23138 0.062,-0.0509 0.17468,-0.10324 0.25056,-0.11649 0.0759,-0.0133 0.16391,-0.0508 0.19555,-0.0832 0.0317,-0.0323 0.12054,-0.0596 0.19751,-0.0601 0.077,-6.2e-4 0.25742,-0.0492 0.40099,-0.108 0.18303,-0.0751 0.31685,-0.0945 0.44783,-0.0649 0.10276,0.0231 0.25653,0.0221 0.34175,-0.003 0.1023,-0.0297 0.20277,-0.0233 0.29567,0.0193 0.1339,0.0611 0.1474,0.0513 0.27804,-0.20176 0.0754,-0.14626 0.16889,-0.26462 0.20757,-0.26297 0.0386,0.002 0.13787,-0.0269 0.22049,-0.0635 0.0826,-0.0365 0.25023,-0.0763 0.37252,-0.088 0.18002,-0.0174 0.24416,0.002 0.33695,0.10068 0.0631,0.0671 0.0996,0.15605 0.0813,0.19752 -0.0183,0.0415 -0.009,0.0768 0.0189,0.0784 0.10016,0.006 0.038,0.2773 -0.0782,0.34071 -0.27029,0.14775 -0.41202,0.63664 -0.43767,1.51006 -0.022,0.75024 0.002,1.05578 0.0987,1.28344 0.0346,0.081 0.0462,0.20009 0.0257,0.26457 -0.0203,0.0645 -0.0144,0.14955 0.0135,0.18906 0.0277,0.0396 0.0604,0.20305 0.0725,0.36352 0.0121,0.16042 0.0448,0.29303 0.0727,0.29465 0.0279,0.002 0.0664,0.0474 0.0854,0.10181 0.0835,0.23801 0.26839,0.52515 0.36136,0.56134 0.0556,0.0216 0.19643,0.13051 0.31301,0.24199 0.11654,0.11146 0.26425,0.20681 0.32825,0.2119 0.50773,0.0404 1.15026,0.13905 1.19779,0.18397 0.0358,0.0338 0.167,0.0373 0.34392,0.009 0.15737,-0.025 0.35638,-0.0266 0.44227,-0.004 0.17348,0.0461 0.49322,-0.0307 1.0375,-0.24937 0.19833,-0.0796 0.46409,-0.1491 0.59059,-0.15436 0.25145,-0.0104 0.69463,-0.15571 0.75836,-0.2486 0.0221,-0.0322 0.0637,-0.0415 0.0926,-0.0209 0.0288,0.0206 0.15083,-0.0342 0.27103,-0.12161 0.12018,-0.0875 0.24342,-0.15762 0.27384,-0.15583 0.0305,0.002 0.174,-0.0302 0.31899,-0.0712 0.14503,-0.041 0.28829,-0.0786 0.3184,-0.0836 0.10888,-0.018 0.57929,-0.19955 0.85913,-0.33151 0.0765,-0.0361 0.41011,-0.18232 0.74111,-0.3249 0.41046,-0.17679 0.64875,-0.31503 0.74934,-0.43469 0.081,-0.0965 0.17742,-0.17372 0.21402,-0.17159 0.0366,0.002 0.17147,-0.0647 0.29968,-0.14849 0.12821,-0.0838 0.24428,-0.15171 0.2579,-0.15092 0.0434,0.002 0.53127,-0.30459 0.56727,-0.35706 0.0191,-0.0277 0.0828,-0.0476 0.14179,-0.0442 0.0589,0.003 0.23915,-0.0802 0.40037,-0.18585 0.16123,-0.10565 0.36103,-0.23057 0.44397,-0.27756 0.083,-0.0469 0.26148,-0.18472 0.39674,-0.30603 0.31816,-0.28532 0.50233,-0.4004 0.62966,-0.39341 0.0564,0.003 0.20703,-0.0717 0.3347,-0.16629 0.12769,-0.0947 0.30909,-0.20681 0.40312,-0.24945 0.0941,-0.0426 0.20151,-0.11095 0.23883,-0.15182 0.0374,-0.0409 0.23352,-0.14828 0.43602,-0.2387 0.20677,-0.0923 0.39551,-0.21737 0.43056,-0.28523 0.0664,-0.12854 0.0616,-0.14024 -0.24814,-0.61371 -0.0828,-0.12655 -0.1648,-0.26823 -0.18221,-0.31488 -0.0417,-0.11168 -0.35723,-0.57859 -0.46862,-0.69344 -0.0482,-0.0496 -0.18182,-0.26372 -0.29696,-0.47563 -0.11516,-0.2119 -0.27563,-0.46103 -0.35658,-0.55365 -0.0809,-0.0926 -0.14502,-0.20751 -0.14233,-0.25534 0.003,-0.0479 -0.0151,-0.088 -0.0397,-0.0895 -0.0413,-0.002 -0.25522,-0.45524 -0.25095,-0.53143 0.001,-0.0189 -0.0781,-0.12869 -0.17612,-0.24407 -0.0979,-0.11535 -0.17691,-0.23011 -0.1755,-0.25502 0.001,-0.025 -0.13152,-0.30878 -0.29535,-0.63083 -0.16384,-0.32205 -0.39632,-0.80471 -0.51663,-1.07253 -0.12029,-0.26783 -0.25889,-0.55307 -0.30798,-0.63387 -0.0492,-0.0807 -0.10252,-0.22081 -0.1187,-0.31117 -0.0162,-0.0904 -0.0682,-0.22879 -0.11568,-0.30763 -0.14834,-0.24647 -0.34014,-0.67406 -0.33615,-0.74941 0.002,-0.0397 -0.0723,-0.21347 -0.16533,-0.38625 -0.20602,-0.38265 -0.5569,-1.23625 -0.55106,-1.34056 0.004,-0.0764 -0.0127,-0.12565 -0.15673,-0.45185 -0.0435,-0.0984 -0.077,-0.21589 -0.0744,-0.26087 0.003,-0.045 -0.0604,-0.25643 -0.13978,-0.46985 -0.0794,-0.21341 -0.1728,-0.46437 -0.20753,-0.55767 -0.0346,-0.0933 -0.0765,-0.20776 -0.0928,-0.25435 -0.0164,-0.0466 -0.0609,-0.1485 -0.0989,-0.22645 -0.0394,-0.0805 -0.0478,-0.16128 -0.0194,-0.18698 0.0281,-0.0255 0.0329,-0.10987 0.0108,-0.19361 -0.0211,-0.0815 -0.0487,-0.23604 -0.0612,-0.34324 -0.0462,-0.39549 -0.0843,-0.64324 -0.11166,-0.72568 -0.0269,-0.0813 -0.0406,-0.28812 -0.0686,-1.04212 -0.012,-0.32522 0.13269,-1.21449 0.30998,-1.90339 0.0386,-0.14988 0.11871,-0.4928 0.17813,-0.76206 0.066,-0.29966 0.14847,-0.53086 0.21227,-0.59612 0.0574,-0.0585 0.14142,-0.19157 0.1869,-0.2954 0.0455,-0.10383 0.1695,-0.28748 0.27567,-0.40813 0.10617,-0.12063 0.19473,-0.24957 0.1968,-0.28658 0.007,-0.12604 0.64996,-0.83348 0.80882,-0.89 0.0871,-0.0311 0.20295,-0.1013 0.25755,-0.15611 0.0547,-0.055 0.13614,-0.0976 0.18121,-0.095 0.0451,0.003 0.12235,-0.0285 0.17171,-0.0687 0.14399,-0.11789 0.56754,-0.23543 0.81862,-0.2272 0.12748,0.004 0.25084,-0.0196 0.27411,-0.0529 0.0231,-0.0333 0.15356,-0.0862 0.28955,-0.11761 0.13596,-0.0314 0.31187,-0.0968 0.39088,-0.14547 0.11789,-0.0725 0.26166,-0.0811 0.80254,-0.048 0.36246,0.0211 0.65782,0.0599 0.65648,0.0838 -0.005,0.0823 0.16047,0.11834 0.26771,0.0586 0.0896,-0.0502 0.12753,-0.0385 0.22974,0.0715 0.11016,0.11837 0.12992,0.12317 0.19815,0.0485 0.0417,-0.0456 0.0888,-0.0597 0.1048,-0.0313 0.0159,0.0285 0.13545,0.11138 0.26559,0.18424 0.30814,0.17253 0.53154,0.33528 0.91178,0.66423 0.42074,0.36403 0.5807,0.552 0.61204,0.71921 0.0145,0.0775 0.0934,0.2144 0.1755,0.30427 0.082,0.0898 0.14746,0.19336 0.14542,0.22992 -0.002,0.0365 0.0286,0.0813 0.0681,0.0994 0.0394,0.0182 0.0825,0.11046 0.0955,0.20511 0.0171,0.1243 0.0542,0.17386 0.13329,0.17848 0.0682,0.004 0.11159,-0.03 0.11508,-0.0901 0.003,-0.0531 0.0588,-0.1749 0.12361,-0.27074 0.0649,-0.0959 0.11974,-0.2043 0.1218,-0.24107 0.0121,-0.21716 1.04828,-1.38618 1.51045,-1.70421 0.15646,-0.1077 0.33927,-0.27544 0.40617,-0.37272 0.0975,-0.14163 0.14631,-0.16905 0.24524,-0.13749 0.0883,0.0282 0.16453,10e-4 0.2668,-0.0908 0.0787,-0.0716 0.17704,-0.12832 0.21838,-0.1259 0.0413,0.002 0.12196,-0.0427 0.17918,-0.10018 0.0572,-0.0575 0.13789,-0.1026 0.17932,-0.10027 0.0415,0.002 0.17877,-0.0395 0.30523,-0.0927 0.12647,-0.0536 0.26601,-0.0952 0.31011,-0.0925 0.0441,0.003 0.12052,-0.0274 0.16983,-0.0668 0.13626,-0.10872 0.66209,-0.17718 0.7463,-0.0971 0.0377,0.0357 0.0949,0.0505 0.12717,0.0324 0.0577,-0.0318 0.40196,0.0873 0.51105,0.17681 0.0305,0.0249 0.17037,0.0637 0.3109,0.0861 0.14054,0.0221 0.28336,0.0671 0.31741,0.0995 0.0342,0.0323 0.17687,0.10621 0.31743,0.16426 0.14053,0.058 0.40668,0.22449 0.5914,0.37001 0.18476,0.1455 0.37345,0.26672 0.41931,0.26941 0.0459,0.003 0.12671,0.0681 0.17962,0.14552 0.053,0.0772 0.14337,0.15896 0.201,0.18138 0.0639,0.025 0.10201,0.0898 0.0977,0.16636 -0.004,0.0691 0.0392,0.17334 0.0954,0.2317 0.0564,0.0584 0.10143,0.1258 0.10006,0.14986 -0.001,0.024 0.0509,0.10952 0.11588,0.18992 0.0651,0.0804 0.19043,0.31423 0.27857,0.5197 0.0881,0.2054 0.17963,0.38732 0.20331,0.40424 0.0236,0.0169 0.0396,0.0916 0.0355,0.16606 -0.004,0.0745 0.0121,0.17971 0.0358,0.23394 0.13407,0.30436 0.14187,2.24068 0.009,2.32582 -0.0306,0.0197 -0.0686,0.14551 -0.0847,0.2798 -0.0155,0.13426 -0.0572,0.27486 -0.0914,0.31243 -0.0343,0.0376 -0.0532,0.115 -0.0419,0.17208 0.0113,0.057 -0.0425,0.19721 -0.11922,0.31142 -0.0768,0.11423 -0.14307,0.26505 -0.14716,0.33515 -0.008,0.14968 -0.17171,0.62078 -0.2943,0.85068 -0.12845,0.2408 -0.45033,0.93552 -0.56156,1.21193 -0.0539,0.13378 -0.13313,0.31585 -0.17621,0.40461 -0.21318,0.43939 -0.34168,0.75137 -0.34675,0.84185 -0.003,0.0551 -0.0382,0.11819 -0.078,0.14022 -0.0399,0.022 -0.1134,0.14964 -0.16354,0.28363 -0.0502,0.13399 -0.19377,0.42435 -0.31914,0.64521 -0.12539,0.22088 -0.24777,0.49192 -0.272,0.60227 -0.03,0.13732 -0.0664,0.1904 -0.11501,0.16807 -0.0441,-0.0202 -0.0872,0.0206 -0.11413,0.10817 -0.0237,0.0774 -0.0619,0.13971 -0.0849,0.13837 -0.0229,-0.001 -0.11946,0.13461 -0.21442,0.30211 -0.0949,0.16748 -0.25652,0.38559 -0.359,0.48465 -0.10246,0.0992 -0.18758,0.20232 -0.1891,0.2294 -0.006,0.10089 -0.31819,0.59914 -0.45258,0.72139 -0.0766,0.0697 -0.12647,0.15098 -0.11073,0.18061 0.0156,0.0296 -0.0162,0.0946 -0.0711,0.1444 -0.15397,0.13987 -0.6657,0.86452 -0.67047,0.9495 -0.002,0.0415 -0.0396,0.0736 -0.0828,0.071 -0.0433,-0.002 -0.1303,0.0982 -0.19356,0.22382 -0.0632,0.12562 -0.15733,0.2601 -0.20909,0.29884 -0.0518,0.0388 -0.0957,0.1016 -0.098,0.13984 -0.002,0.0381 -0.0758,0.13664 -0.16364,0.21878 -0.0878,0.0821 -0.25493,0.25585 -0.37122,0.38598 -0.11631,0.13012 -0.36744,0.38931 -0.55804,0.57594 -0.19061,0.18666 -0.34773,0.35429 -0.34917,0.37252 -0.001,0.0182 -0.0737,0.10358 -0.16048,0.18971 -0.0869,0.0861 -0.24944,0.26532 -0.36128,0.39824 -0.11184,0.1329 -0.25424,0.26654 -0.3165,0.29699 -0.0622,0.0304 -0.20478,0.17939 -0.3168,0.33104 -0.11202,0.15165 -0.30612,0.36207 -0.43134,0.46764 -0.12522,0.10554 -0.19733,0.19468 -0.16023,0.19807 0.0371,0.002 0.0652,0.0461 0.0625,0.0949 -0.004,0.0668 -0.0374,0.0784 -0.13651,0.0467 -0.10479,-0.0334 -0.15275,-0.0119 -0.23542,0.10476 -0.0571,0.0807 -0.15489,0.1794 -0.21733,0.21938 -0.12991,0.0831 -0.52387,0.44406 -0.66928,0.61305 -0.0921,0.10704 -0.0932,0.12578 -0.0172,0.3076 0.0849,0.20321 0.52891,0.67812 0.64013,0.68461 0.0933,0.005 0.34612,0.28696 0.34092,0.37975 -0.002,0.0432 0.0488,0.11119 0.11354,0.1511 0.0649,0.04 0.20987,0.17402 0.32222,0.29799 0.11233,0.12395 0.25204,0.24372 0.31044,0.26613 0.0585,0.0223 0.25093,0.19522 0.42784,0.38395 0.2025,0.216 0.36857,0.34587 0.44821,0.35051 0.0696,0.004 0.15688,0.0493 0.19395,0.10058 0.0718,0.0992 0.60154,0.46216 0.70692,0.48426 0.0709,0.0149 0.34602,0.22826 0.53886,0.41793 0.0706,0.0695 0.22396,0.14957 0.34065,0.17788 0.1167,0.0282 0.2871,0.12674 0.3787,0.21873 0.22468,0.2257 0.64712,0.4508 0.82324,0.43866 0.0542,-0.004 0.12862,0.0218 0.16541,0.0568 0.099,0.094 0.65983,0.31873 0.82146,0.32907 0.0771,0.004 0.24735,0.055 0.37842,0.11111 0.24233,0.10389 1.20998,0.20691 1.42852,0.15212 0.0606,-0.0152 0.25631,-0.037 0.43514,-0.0489 0.1788,-0.0115 0.47496,-0.071 0.65812,-0.13192 0.84735,-0.28174 1.07694,-0.34917 1.17026,-0.34372 0.0552,0.003 0.16281,-0.0316 0.23911,-0.0774 0.13123,-0.0787 0.18613,-0.12043 0.49404,-0.37507 0.0704,-0.0582 0.19254,-0.10201 0.27148,-0.0973 0.079,0.005 0.22236,-0.046 0.31868,-0.11241 0.0964,-0.0663 0.2532,-0.13355 0.34865,-0.14915 0.0954,-0.0157 0.20453,-0.0623 0.24239,-0.10381 0.0379,-0.0415 0.0918,-0.0741 0.11988,-0.0724 0.0572,0.003 0.36378,-0.194 0.66708,-0.42944 0.11059,-0.0858 0.31263,-0.23671 0.44897,-0.33524 0.32519,-0.23503 0.56572,-0.45096 0.73778,-0.66228 0.0768,-0.0944 0.16953,-0.1699 0.20591,-0.16778 0.0364,0.002 0.19226,-0.13193 0.34642,-0.29789 0.15415,-0.16595 0.47084,-0.46486 0.70375,-0.66425 0.23293,-0.1994 0.46463,-0.40586 0.51488,-0.45886 0.19341,-0.20381 1.04097,-0.97174 1.71563,-1.5544 0.38763,-0.33477 0.73406,-0.65524 0.7699,-0.71219 0.31546,-0.50135 0.49553,-0.74543 0.70228,-0.95199 0.13291,-0.13279 0.31384,-0.343 0.40208,-0.46715 0.0882,-0.12418 0.18159,-0.22454 0.20744,-0.22303 0.0259,10e-4 0.11169,-0.13663 0.19074,-0.30695 0.079,-0.17034 0.20466,-0.40752 0.27914,-0.52709 0.20039,-0.32173 0.59091,-0.97743 0.74597,-1.25248 0.0746,-0.13256 0.16911,-0.27197 0.20973,-0.3098 0.0407,-0.038 0.0764,-0.1136 0.0794,-0.16837 0.003,-0.0548 0.0431,-0.12783 0.0889,-0.16232 0.10128,-0.0762 0.38873,-0.61949 0.39594,-0.74827 0.003,-0.0509 0.0273,-0.11495 0.0542,-0.14229 0.0271,-0.0273 0.0862,-0.16451 0.13185,-0.30487 0.0456,-0.14034 0.131,-0.2948 0.18992,-0.34324 0.0589,-0.0485 0.109,-0.12177 0.11132,-0.16299 0.002,-0.0412 0.0291,-0.11667 0.0596,-0.16774 0.0543,-0.0907 0.13439,-0.29082 0.38899,-0.97028 0.0694,-0.18499 0.15031,-0.34977 0.17999,-0.36616 0.0297,-0.0164 0.0559,-0.0652 0.0583,-0.10842 0.002,-0.0434 0.0856,-0.19749 0.18488,-0.34275 0.0993,-0.14527 0.20014,-0.35482 0.22423,-0.46571 0.0241,-0.11084 0.11041,-0.31246 0.19178,-0.44796 0.0814,-0.13555 0.19067,-0.39329 0.24284,-0.5728 0.0522,-0.1795 0.15423,-0.43495 0.22679,-0.56762 0.0725,-0.1327 0.12718,-0.28705 0.12139,-0.34307 -0.006,-0.056 0.0299,-0.17836 0.0793,-0.27196 0.18849,-0.35697 0.28656,-0.59128 0.29474,-0.70432 0.0129,-0.1768 0.14202,-0.35387 0.31649,-0.43364 0.19354,-0.0884 0.30718,-0.085 0.30188,0.009 -0.002,0.0396 0.0746,0.15914 0.17086,0.26577 0.15989,0.17727 0.3225,0.60709 0.31051,0.8208 -0.003,0.0473 0.0317,0.0882 0.0762,0.0908 0.0446,0.003 0.079,0.042 0.0764,0.0874 -0.003,0.0454 0.019,0.084 0.0481,0.0858 0.0297,0.002 0.0344,0.0744 0.011,0.16657 -0.0327,0.12804 -0.0226,0.16464 0.0462,0.16866 0.0665,0.004 0.0847,0.059 0.0753,0.22703 -0.0103,0.18356 0.009,0.23194 0.11455,0.27985 0.0938,0.0428 0.13325,0.11565 0.15094,0.27874 0.019,0.17566 0.0781,0.27304 0.28907,0.47664 0.14579,0.14069 0.29986,0.24977 0.34236,0.2424 0.0486,-0.008 0.0643,0.0158 0.0424,0.0656 -0.0191,0.0435 0.011,0.13546 0.0672,0.2045 0.0858,0.1055 0.1163,0.11485 0.19134,0.0588 0.0662,-0.0495 0.0937,-0.0497 0.10697,-9.2e-4 0.01,0.0362 0.17323,0.15394 0.36329,0.26151 0.26085,0.14761 0.38734,0.18934 0.51605,0.17016 0.0937,-0.014 0.30186,-0.037 0.46241,-0.051 0.184,-0.0161 0.31265,-0.0588 0.34809,-0.11549 0.0308,-0.0495 0.0873,-0.0881 0.12533,-0.0859 0.0379,0.002 0.19328,-0.0682 0.345,-0.15651 0.27935,-0.16259 0.42497,-0.26799 1.0118,-0.7324 0.17903,-0.1417 0.35386,-0.26605 0.3885,-0.27638 0.19076,-0.0568 1.00614,-0.721 0.89324,-0.72758 -0.0265,-0.002 -0.0181,-0.0588 0.0182,-0.12723 0.0416,-0.0777 0.10784,-0.11817 0.17719,-0.10776 0.11233,0.0167 0.41624,-0.11049 0.41991,-0.176 0.003,-0.047 0.24217,-0.004 0.51893,0.0923 0.15067,0.0527 0.2724,0.14976 0.37912,0.30227 0.15458,0.22098 0.15592,0.2299 0.0803,0.53812 -0.10312,0.42041 -0.15057,2.3494 -0.0745,3.02564 0.0173,0.15393 0.008,0.35161 -0.0206,0.43929 -0.0627,0.1941 -0.0869,1.02215 -0.0328,1.12402 0.0229,0.0434 0.002,0.11126 -0.0529,0.16566 -0.10736,0.10795 -0.12401,0.22816 -0.0442,0.31945 0.0335,0.0385 0.0362,0.094 0.007,0.1359 -0.0748,0.10617 -0.14755,0.8515 -0.22706,2.32885 -0.059,1.0878 -0.0576,1.46644 0.005,2.1262 0.0423,0.44147 0.0619,0.84956 0.0437,0.90685 -0.0181,0.0573 -0.0168,0.24585 0.003,0.41897 0.0565,0.49849 0.0602,0.65118 0.0372,1.55958 -0.0245,0.97308 0.0389,1.70279 0.19649,2.26125 0.0596,0.21133 0.13359,0.49184 0.16427,0.62337 0.0307,0.13157 0.0867,0.26856 0.12454,0.30449 0.0379,0.0359 0.0666,0.10191 0.0641,0.14648 -0.007,0.13143 0.16958,0.81132 0.26727,1.02699 0.19065,0.42089 0.24509,0.60455 0.25852,0.87228 0.0138,0.27586 0.10479,0.56018 0.19232,0.60117 0.0495,0.0231 0.34744,0.74053 0.34271,0.82507 -0.006,0.10694 0.36272,0.53492 0.46604,0.54093 0.0866,0.005 0.10299,0.0374 0.0828,0.1639 -0.0139,0.0866 -7e-4,0.19323 0.0294,0.23682 0.0978,0.14215 0.1054,0.35683 0.0199,0.5699 -0.0923,0.23001 -0.22049,0.32194 -0.37712,0.27026 -0.0563,-0.0186 -0.10308,-0.0171 -0.10421,0.003 -0.001,0.0201 -0.0525,0.0649 -0.11401,0.0994 -0.13306,0.0743 -0.32366,-0.0307 -0.31564,-0.1738 0.006,-0.10336 -0.0917,-0.22436 -0.18504,-0.22982 -0.0371,-0.002 -0.17151,-0.0847 -0.29856,-0.18336 -0.12704,-0.0986 -0.25582,-0.18089 -0.28617,-0.18266 -0.0303,-0.002 -0.12483,-0.1043 -0.20994,-0.22777 -0.085,-0.12352 -0.22295,-0.30816 -0.30631,-0.41028 -0.0833,-0.10219 -0.19939,-0.2855 -0.25786,-0.40745 -0.0585,-0.12193 -0.15007,-0.23872 -0.20357,-0.25954 -0.0535,-0.0207 -0.13203,-0.11722 -0.1745,-0.21421 -0.0426,-0.097 -0.14856,-0.29433 -0.23577,-0.43856 -0.1464,-0.24215 -0.23443,-0.4341 -0.24084,-0.52517 -0.002,-0.0202 -0.0199,-0.0567 -0.0409,-0.0808 -0.021,-0.024 -0.0361,-0.0954 -0.0336,-0.15871 0.003,-0.0632 -0.0282,-0.16521 -0.0686,-0.22662 -0.0403,-0.0615 -0.0704,-0.16483 -0.0668,-0.2298 0.004,-0.065 -0.009,-0.13658 -0.0293,-0.15919 -0.0197,-0.0226 -0.0401,-0.10883 -0.0452,-0.19162 -0.005,-0.0827 -0.0372,-0.26423 -0.0713,-0.40316 -0.1,-0.40679 -0.18775,-1.03315 -0.17695,-1.26292 0.006,-0.11702 -0.0155,-0.35792 -0.0468,-0.53529 -0.0682,-0.3879 -0.064,-0.35408 -0.0584,-0.47249 0.003,-0.0623 -0.0107,-0.0748 -0.0388,-0.0352 -0.0237,0.0338 -0.0382,-0.0666 -0.0322,-0.22315 0.0162,-0.41394 -0.044,-1.37077 -0.11166,-1.77299 -0.12478,-0.7413 -0.0478,-2.36144 0.19205,-4.03948 0.14147,-0.99003 0.25076,-2.37191 0.2482,-3.13874 -0.001,-0.39563 0.0315,-0.9787 0.0731,-1.29576 0.0416,-0.31703 0.0911,-0.69999 0.1102,-0.85099 0.019,-0.15105 0.0595,-0.41005 0.0898,-0.57565 0.0542,-0.29459 0.0531,-0.29871 -0.0496,-0.19399 -0.0578,0.0589 -0.22791,0.19543 -0.37811,0.30349 -0.15021,0.10806 -0.30109,0.2507 -0.33531,0.31697 -0.0416,0.0805 -0.0948,0.10974 -0.16048,0.088 -0.0611,-0.0202 -0.15077,0.019 -0.23679,0.10351 -0.0762,0.0748 -0.16153,0.13464 -0.18969,0.13299 -0.0281,-0.002 -0.10932,0.0684 -0.18035,0.15543 -0.071,0.0871 -0.17709,0.15564 -0.23565,0.15222 -0.0586,-0.003 -0.1087,0.0247 -0.11143,0.0626 -0.003,0.0378 -0.1335,0.13605 -0.29065,0.21814 -0.15712,0.0821 -0.36848,0.20806 -0.46962,0.27986 -0.10114,0.0717 -0.29175,0.15659 -0.42356,0.18838 -0.1318,0.0317 -0.30629,0.0889 -0.38774,0.12673 -0.0814,0.0379 -0.18007,0.0558 -0.21914,0.0399 -0.0391,-0.0158 -0.25421,-0.0501 -0.47803,-0.0759 -0.42562,-0.0492 -0.6297,-0.1145 -1.1225,-0.36025 -0.16337,-0.0813 -0.32137,-0.14942 -0.35128,-0.15115 -0.0855,-0.005 -0.78149,-0.80564 -0.77658,-0.8933 0.002,-0.0434 -0.0292,-0.11052 -0.0702,-0.1495 -0.041,-0.0391 -0.0967,-0.16351 -0.12355,-0.27675 -0.0829,-0.34891 -0.20014,-0.65512 -0.26998,-0.70557 -0.0367,-0.0264 -0.0634,-0.12761 -0.0595,-0.22477 0.006,-0.15845 -0.006,-0.14606 -0.11685,0.12042 -0.0681,0.16337 -0.16362,0.3652 -0.21212,0.44847 -0.0485,0.0833 -0.0896,0.17779 -0.0914,0.20991 -0.002,0.0322 -0.0568,0.15759 -0.12231,0.27881 -0.0655,0.12121 -0.15065,0.32322 -0.18928,0.44892 -0.0387,0.1257 -0.10815,0.26298 -0.15446,0.3051 -0.0463,0.0422 -0.0858,0.10499 -0.0877,0.13968 -0.002,0.0347 -0.0731,0.16984 -0.15838,0.30034 -0.0884,0.13557 -0.14548,0.28475 -0.13302,0.34785 0.012,0.0608 -1.1e-4,0.10924 -0.0266,0.1077 -0.065,-0.004 -0.34331,0.39851 -0.34928,0.5049 -0.003,0.0466 -0.0822,0.21042 -0.17686,0.3642 -0.0946,0.15372 -0.19248,0.35303 -0.21735,0.44282 -0.0249,0.0898 -0.13513,0.33236 -0.245,0.53892 -0.21669,0.40755 -0.33608,0.6768 -0.39445,0.88976 -0.0205,0.0748 -0.0839,0.1906 -0.14074,0.25716 -0.0569,0.0666 -0.12475,0.19953 -0.15083,0.29547 -0.026,0.096 -0.0966,0.23762 -0.15696,0.31488 -0.0603,0.0772 -0.11033,0.15356 -0.11123,0.1696 -0.003,0.0519 -0.38271,0.58877 -0.48095,0.67983 -0.0524,0.0487 -0.15192,0.19297 -0.22111,0.32079 -0.19183,0.3544 -0.43812,0.71665 -0.58145,0.8552 -0.071,0.0686 -0.13076,0.1559 -0.13289,0.19401 -0.002,0.038 -0.0361,0.0986 -0.0753,0.13435 -0.16911,0.15404 -0.81582,0.88817 -1.0941,1.24205 -0.1679,0.21347 -0.32696,0.38221 -0.72249,0.76642 -0.0685,0.0665 -0.14311,0.17053 -0.16574,0.23104 -0.0227,0.0605 -0.0622,0.10881 -0.0878,0.1073 -0.0257,-10e-4 -0.0649,0.0456 -0.0869,0.10468 -0.0221,0.059 -0.23808,0.29112 -0.47998,0.51567 -0.24185,0.22457 -0.63321,0.59421 -0.86969,0.82146 -0.51822,0.49801 -1.56294,1.33489 -1.6921,1.3555 -0.0511,0.008 -0.24156,0.12148 -0.42328,0.2519 -0.91429,0.65608 -1.04791,0.74085 -1.18856,0.75422 -0.0604,0.006 -0.11929,0.0342 -0.13084,0.0628 -0.0116,0.0289 -0.0587,0.0503 -0.10471,0.0476 -0.046,-0.003 -0.16517,0.0401 -0.26472,0.0952 -0.0995,0.055 -0.33092,0.13941 -0.51416,0.18755 -0.37145,0.0975 -0.65873,0.2179 -0.7767,0.32522 -0.043,0.0392 -0.1192,0.0697 -0.16916,0.0678 -0.0499,-0.003 -0.1908,0.0389 -0.31301,0.0905 -0.1222,0.0517 -0.24911,0.0931 -0.28207,0.0923 -0.0328,-0.002 -0.17626,0.0788 -0.31848,0.1769 -0.14221,0.0981 -0.26963,0.17789 -0.28315,0.17711 -0.0135,-8e-4 -0.10682,0.0684 -0.20741,0.15383 -0.10059,0.0854 -0.21066,0.15331 -0.24466,0.15085 -0.0344,-0.002 -0.0245,-0.0276 0.0225,-0.057 0.0826,-0.0516 -0.19196,-0.0533 -0.62337,-0.004 -0.09,0.0103 -0.26809,0.0274 -0.39565,0.0382 -0.12753,0.0106 -0.24503,0.0387 -0.26106,0.0619 -0.0161,0.0234 -0.17166,0.0208 -0.34579,-0.006 -0.23131,-0.0349 -0.36554,-0.0264 -0.49814,0.0314 -0.0999,0.0439 -0.28116,0.0737 -0.40295,0.0665 -0.12176,-0.007 -0.42616,0.0161 -0.67642,0.0519 -0.35931,0.0512 -0.50753,0.0493 -0.70446,-0.009 -0.20463,-0.0607 -0.25813,-0.06 -0.29776,0.003 -0.0266,0.0422 -0.0707,0.061 -0.0981,0.0415 -0.0273,-0.0195 -0.0345,-0.0578 -0.0158,-0.085 0.0184,-0.0272 0.01,-0.0509 -0.0201,-0.0526 -0.0298,-0.002 -0.0716,0.0223 -0.0929,0.0537 -0.0215,0.0311 -0.0781,0.037 -0.12594,0.0126 -0.21409,-0.10869 -0.74593,-0.21531 -0.84018,-0.16853 -0.0699,0.0347 -0.0861,0.0314 -0.0568,-0.0115 0.0229,-0.0337 0.008,-0.0618 -0.0349,-0.0644 -0.0417,-0.002 -0.11478,-0.0536 -0.16226,-0.11375 -0.0475,-0.0601 -0.15131,-0.12673 -0.2306,-0.14795 -0.0792,-0.0213 -0.19238,-0.0903 -0.25131,-0.15344 -0.0589,-0.0631 -0.18751,-0.16335 -0.28578,-0.22265 -0.21806,-0.13165 -0.39443,-0.27279 -0.79791,-0.63855 -0.17039,-0.15447 -0.35033,-0.28322 -0.39992,-0.28611 -0.0496,-0.003 -0.15457,-0.0952 -0.23332,-0.20484 -0.0788,-0.10977 -0.17916,-0.20899 -0.22311,-0.22044 -0.2365,-0.0619 -0.88833,-0.65604 -1.45075,-1.32251 -0.26248,-0.31104 -0.53506,-0.63357 -0.60574,-0.71678 -0.0707,-0.0833 -0.2728,-0.29657 -0.44919,-0.47421 -0.2513,-0.25309 -0.61147,-0.71475 -0.85716,-1.09861 -0.024,-0.0376 -0.64194,0.56054 -0.64555,0.62499 -0.002,0.0296 -0.0496,0.0512 -0.10663,0.0479 -0.057,-0.003 -0.11276,0.012 -0.12394,0.0344 -0.0487,0.0965 -1.11168,0.80605 -1.65774,1.10651 -0.54263,0.29856 -0.86781,0.51638 -0.93278,0.62472 -0.0401,0.0669 -0.13625,0.13353 -0.2136,0.14799 -0.0773,0.0144 -0.28618,0.12553 -0.46406,0.24694 -0.17787,0.12137 -0.40471,0.25015 -0.50409,0.28616 -0.0995,0.036 -0.30152,0.14915 -0.44918,0.25147 -0.14767,0.1023 -0.30333,0.18396 -0.3459,0.18147 -0.0426,-0.002 -0.094,0.0196 -0.1142,0.0491 -0.0576,0.0841 -1.32539,0.73882 -1.49361,0.77147 -0.0829,0.0161 -0.15174,0.0467 -0.15294,0.068 -0.001,0.0214 -0.19616,0.12548 -0.43326,0.23149 -0.23708,0.10602 -0.56987,0.27468 -0.73953,0.3748 -0.16966,0.10008 -0.39463,0.19558 -0.49995,0.2121 -0.10532,0.0166 -0.22968,0.0586 -0.27638,0.0934 -0.10955,0.0819 -0.54188,0.20499 -0.98769,0.28119 -0.19341,0.0331 -0.38436,0.0847 -0.42434,0.11481 -0.0401,0.0302 -0.0958,0.0383 -0.12397,0.0182 -0.0282,-0.02 -0.13254,0.007 -0.23184,0.0615 -0.1216,0.0661 -0.2314,0.0847 -0.33619,0.0567 -0.0856,-0.0225 -0.45325,-0.0296 -0.81703,-0.0147 -0.36377,0.0146 -0.92532,0.0373 -1.24788,0.0506 -0.433,0.0175 -0.60491,0.006 -0.65704,-0.0435 -0.0494,-0.0469 -0.0823,-0.0501 -0.1094,-0.0115 -0.0267,0.039 -0.0828,0.0309 -0.17963,-0.0258 -0.49787,-0.29167 -0.46894,-0.28127 -0.57728,-0.20706 -0.0564,0.0387 -0.14448,0.0688 -0.19554,0.0668 -0.051,-0.003 -0.18008,0.0659 -0.28677,0.15098 -0.10667,0.0851 -0.22114,0.15306 -0.25438,0.15112 -0.0333,-0.002 -0.0616,0.0165 -0.063,0.041 -0.001,0.0245 -0.1084,0.0838 -0.23786,0.13175 -0.12946,0.048 -0.29978,0.14147 -0.3785,0.20772 -0.11097,0.0933 -0.22602,0.1221 -0.51219,0.12764 -0.203,0.004 -0.39898,0.0238 -0.4355,0.0443 -0.10345,0.0576 -0.64098,0.0742 -0.66945,0.0206 z m 1.6602,-1.58928 c 0.0415,0.0191 0.1546,-0.0272 0.25143,-0.10292 0.28564,-0.22326 0.27654,-0.51781 -0.0345,-1.11798 -0.0243,-0.0471 -0.0769,-0.17459 -0.11661,-0.28339 -0.0398,-0.10883 -0.15249,-0.30209 -0.25054,-0.42953 -0.0981,-0.12742 -0.1757,-0.28612 -0.17251,-0.35264 0.004,-0.0665 -0.0373,-0.20626 -0.09,-0.31049 -0.11412,-0.22585 -0.13569,-0.43076 -0.13184,-1.25328 0.003,-0.70385 0.037,-0.65951 -0.5198,-0.70248 -0.78316,-0.0606 -1.16677,0.15423 -1.45886,0.81661 -0.21418,0.48564 -0.30051,0.89522 -0.20496,0.97237 0.0533,0.0429 0.0535,0.0612 5.5e-4,0.0796 -0.27002,0.094 -0.24063,1.42934 0.0407,1.84554 0.0755,0.11175 0.15044,0.24788 0.16648,0.30251 0.016,0.0547 0.086,0.12527 0.15549,0.15699 0.0694,0.0317 0.13785,0.0943 0.15191,0.13921 0.0285,0.0908 0.70953,0.42544 0.78317,0.38473 0.0255,-0.0141 0.10028,0.008 0.16573,0.049 0.0654,0.0412 0.25109,0.11147 0.41261,0.15633 l 0.29369,0.0815 0.24109,-0.23314 c 0.14436,-0.13957 0.27135,-0.2192 0.31645,-0.19846 z m 17.26057,-7.62046 c 0.0392,-0.0342 0.0728,-0.0883 0.0745,-0.12036 0.003,-0.0559 0.20285,-0.25375 1.15696,-1.14608 0.24078,-0.22518 0.48514,-0.49115 0.54301,-0.59105 0.0579,-0.0999 0.24408,-0.33049 0.41375,-0.51247 0.16969,-0.18199 0.30984,-0.3543 0.31145,-0.38289 0.002,-0.0287 0.0328,-0.0503 0.0691,-0.0481 0.10668,0.006 0.43543,-0.36272 0.63259,-0.7099 0.20984,-0.36949 0.35371,-0.5508 0.67752,-0.85379 0.12698,-0.11882 0.25203,-0.27333 0.27793,-0.34338 0.0478,-0.1294 0.21377,-0.33796 0.45639,-0.57365 0.0738,-0.0717 0.17106,-0.21545 0.21598,-0.31934 0.045,-0.10386 0.12646,-0.23601 0.18125,-0.29368 0.0548,-0.0577 0.17076,-0.23137 0.25781,-0.38603 0.087,-0.15465 0.17909,-0.27998 0.20459,-0.2785 0.0255,10e-4 0.0637,-0.0654 0.0849,-0.14849 0.0212,-0.0831 0.11708,-0.24098 0.21308,-0.35072 0.17166,-0.19622 0.28596,-0.4291 0.43194,-0.88016 0.0407,-0.12557 0.14155,-0.30144 0.22425,-0.39079 0.13443,-0.14526 0.15299,-0.20902 0.17496,-0.60081 0.0135,-0.24108 0.0449,-0.43712 0.0696,-0.43568 0.089,0.005 0.34241,-0.39641 0.3514,-0.55675 0.006,-0.10533 0.0684,-0.22046 0.17542,-0.32267 0.10483,-0.10028 0.23059,-0.32877 0.34052,-0.61895 0.0959,-0.25302 0.1966,-0.48239 0.22378,-0.50971 0.0272,-0.0273 0.0526,-0.10674 0.0565,-0.17648 0.004,-0.0698 0.0286,-0.12557 0.0552,-0.12402 0.0265,0.002 0.0695,-0.0856 0.0957,-0.19363 0.0261,-0.10802 0.0847,-0.27262 0.13006,-0.3658 0.13651,-0.28064 0.28703,-0.74111 0.29631,-0.90651 0.005,-0.0855 0.0396,-0.22375 0.0773,-0.30721 0.22383,-0.49474 0.4185,-2.3606 0.2664,-2.55357 -0.0634,-0.0804 -0.0629,-0.0979 0.004,-0.1197 0.0429,-0.0139 0.0753,-0.0835 0.0722,-0.15478 -0.003,-0.0711 -0.006,-0.17011 -0.007,-0.2199 -0.005,-0.25965 -0.76869,-1.04824 -0.92902,-0.95963 -0.031,0.0171 -0.0545,9.1e-4 -0.0524,-0.0367 0.002,-0.0373 -0.0341,-0.11574 -0.0803,-0.17429 -0.0463,-0.0586 -0.10761,-0.16154 -0.13629,-0.22886 -0.0443,-0.1039 -0.10343,-0.1269 -0.39147,-0.15215 -0.18663,-0.016 -0.35314,-0.009 -0.37008,0.0151 -0.0169,0.0247 -0.12407,0.0395 -0.23806,0.0329 -0.13839,-0.008 -0.21964,0.016 -0.24461,0.0725 -0.0249,0.0562 -0.0731,0.0708 -0.14379,0.0433 -0.0601,-0.0235 -0.1078,-0.0165 -0.10963,0.0162 -0.002,0.0333 -0.0651,0.0412 -0.1502,0.0187 -0.13723,-0.0364 -0.30948,8.7e-4 -0.50774,0.10934 -0.0462,0.0252 -0.17123,0.0785 -0.27791,0.11832 -0.32204,0.12012 -0.67164,0.37512 -0.67835,0.4948 -0.004,0.0731 -0.0424,0.10784 -0.11425,0.10363 -0.0595,-0.003 -0.10951,0.0184 -0.11122,0.0489 -0.002,0.0304 -0.046,0.0527 -0.0984,0.0497 -0.0524,-0.003 -0.12199,0.0409 -0.15459,0.0975 -0.0326,0.0566 -0.22185,0.2819 -0.42052,0.50044 -0.19867,0.21856 -0.3621,0.41327 -0.3632,0.43269 -10e-4,0.0194 -0.0937,0.15102 -0.20582,0.29244 -0.18211,0.22963 -0.25282,0.38696 -0.38472,0.85581 -0.0209,0.0748 -0.0631,0.16465 -0.0934,0.19956 -0.0303,0.035 -0.042,0.0883 -0.0257,0.11883 0.0161,0.0304 0.004,0.11169 -0.0273,0.1806 -0.0312,0.0689 -0.0953,0.26601 -0.14226,0.43795 -0.066,0.24124 -0.10029,0.29854 -0.15043,0.25092 -0.0471,-0.0448 -0.0804,-0.0369 -0.12108,0.0281 -0.0382,0.0611 -0.0672,0.0693 -0.0903,0.0255 -0.0629,-0.11846 -0.1306,-0.0719 -0.17772,0.12233 -0.0474,0.19526 -0.14076,0.26876 -0.42449,0.33416 -0.12125,0.0279 -0.17252,0.009 -0.25048,-0.0898 -0.14184,-0.18086 -0.16833,-0.30163 -0.16649,-0.75937 0.002,-0.52076 -0.0883,-0.98152 -0.21811,-1.11197 -0.0558,-0.056 -0.15267,-0.21599 -0.21543,-0.35553 -0.10846,-0.24103 -0.82814,-1.10119 -0.92618,-1.10697 -0.0254,-10e-4 -0.13103,-0.0771 -0.23459,-0.16826 -0.21582,-0.18969 -0.44933,-0.32178 -0.62776,-0.35501 -0.0679,-0.0121 -0.1783,-0.0645 -0.24535,-0.11501 -0.13148,-0.0993 -0.48094,-0.15616 -0.62907,-0.1024 -0.0503,0.0184 -0.10651,0.004 -0.12514,-0.0305 -0.021,-0.0399 -0.0584,-0.0462 -0.0994,-0.0167 -0.0361,0.0258 -0.15239,0.0577 -0.25849,0.0709 -0.10606,0.013 -0.27681,0.0934 -0.37939,0.17868 -0.10259,0.0852 -0.21043,0.15342 -0.23961,0.15173 -0.0745,-0.004 -0.84238,0.63914 -0.84913,0.71161 -10e-4,0.0224 -0.0788,0.10763 -0.17032,0.18936 -0.0915,0.0817 -0.18551,0.21766 -0.20872,0.3021 -0.0232,0.0844 -0.0792,0.18139 -0.1245,0.21546 -0.0454,0.0341 -0.12822,0.14919 -0.18429,0.25582 -0.056,0.10665 -0.11605,0.20551 -0.13331,0.21973 -0.0173,0.0141 -0.11807,0.13836 -0.22402,0.27591 -0.19037,0.24713 -0.19345,0.25902 -0.26177,1.00814 -0.0383,0.41692 -0.085,0.83181 -0.10435,0.92196 -0.0501,0.23309 -0.0751,0.85952 -0.0372,0.93088 0.0175,0.0331 0.0199,0.16294 0.005,0.28869 -0.0151,0.1257 0.006,0.32395 0.0465,0.44042 0.0403,0.11652 0.07,0.26702 0.0662,0.33447 -0.004,0.0674 0.0301,0.20953 0.0752,0.31571 0.0451,0.1062 0.086,0.24312 0.091,0.30423 0.0238,0.29641 0.15193,0.90604 0.21149,1.00658 0.0369,0.0622 0.0645,0.15712 0.0615,0.21104 -0.003,0.054 0.0187,0.0994 0.0486,0.10119 0.0297,0.002 0.0524,0.0466 0.0504,0.0998 -0.003,0.0532 0.0292,0.1468 0.0697,0.20825 0.0404,0.0614 0.071,0.15463 0.068,0.20715 -0.003,0.0525 0.0502,0.17126 0.11809,0.26382 0.11191,0.15256 0.11509,0.17587 0.0342,0.2495 -0.0808,0.0735 -0.0796,0.0849 0.0137,0.1213 0.0714,0.0275 0.11788,0.128 0.15106,0.32542 0.0263,0.15688 0.0779,0.36495 0.11475,0.4623 0.15202,0.40272 0.31668,0.92787 0.37303,1.18963 0.0331,0.15348 0.12658,0.388 0.20783,0.52119 0.0813,0.13316 0.1591,0.33142 0.17288,0.44061 0.0139,0.10919 0.0533,0.21848 0.0877,0.24288 0.0345,0.0242 0.11064,0.20898 0.16929,0.41019 0.0586,0.20118 0.13703,0.40684 0.17418,0.45705 0.0371,0.0503 0.0665,0.11117 0.0651,0.13548 -0.001,0.0243 0.0715,0.16352 0.16194,0.30937 0.0904,0.14583 0.1781,0.30949 0.19481,0.36371 0.0167,0.0543 0.0677,0.10079 0.11317,0.10341 0.0473,0.003 0.0801,0.0531 0.0765,0.11747 -0.003,0.0619 0.0783,0.24719 0.18184,0.41167 0.2476,0.39356 0.31414,0.57909 0.23383,0.65217 -0.0442,0.0403 -0.0417,0.0853 0.009,0.15869 0.0389,0.0564 0.0872,0.12874 0.10752,0.16075 0.0202,0.0321 0.16694,0.24602 0.32583,0.47557 0.15888,0.22958 0.34129,0.49538 0.40532,0.59067 0.064,0.0954 0.13969,0.17467 0.16816,0.17633 0.0285,0.002 0.13281,0.0957 0.2319,0.20907 l 0.18013,0.20607 0.29172,-0.19124 c 0.16044,-0.10518 0.32378,-0.21919 0.36299,-0.25339 z m 42.96824,12.47305 c -0.0719,-0.0477 -0.16331,-0.0895 -0.20315,-0.0928 -0.10901,-0.009 -0.3069,-0.20557 -0.27909,-0.27685 0.0135,-0.0345 -0.0211,-0.0801 -0.0766,-0.10181 -0.11192,-0.0436 -0.21338,-0.26299 -0.20345,-0.44001 0.006,-0.10637 -0.0143,-0.11319 -0.27944,-0.0939 -0.15724,0.0115 -0.56856,0.0174 -0.91408,0.0134 -0.49132,-0.006 -0.67027,-0.0284 -0.8212,-0.10318 -0.11954,-0.0594 -0.19423,-0.0736 -0.19626,-0.0376 -0.002,0.0318 -0.0695,-0.0229 -0.15046,-0.12225 -0.081,-0.0993 -0.17573,-0.18205 -0.21059,-0.18409 -0.082,-0.005 -0.88596,-0.66519 -0.88261,-0.72499 0.001,-0.025 -0.0295,-0.0474 -0.0687,-0.0497 -0.0392,-0.002 -0.11927,-0.063 -0.17788,-0.13486 -0.0586,-0.0719 -0.17787,-0.20793 -0.26504,-0.30236 -0.31545,-0.34171 -0.41862,-0.80101 -0.35965,-1.6011 0.0366,-0.49007 0.16676,-1.21189 0.25265,-1.39593 0.0275,-0.0593 0.1132,-0.26012 0.19006,-0.44646 0.0768,-0.18631 0.1625,-0.35132 0.19026,-0.36665 0.0279,-0.0152 0.10527,-0.1311 0.17228,-0.25725 0.0671,-0.12615 0.18432,-0.25892 0.2607,-0.29503 0.0764,-0.0362 0.19155,-0.14247 0.25589,-0.23623 0.0643,-0.0937 0.21175,-0.23479 0.32753,-0.31337 0.11579,-0.0785 0.37879,-0.27749 0.58446,-0.44205 0.20566,-0.16456 0.403,-0.29749 0.43854,-0.29542 0.0356,0.002 0.0806,-0.0327 0.10033,-0.0771 0.0196,-0.0445 0.059,-0.0796 0.0873,-0.0778 0.0284,0.002 0.18891,-0.0537 0.35673,-0.12302 0.32824,-0.13559 0.45924,-0.13927 0.99829,-0.028 0.35222,0.0726 0.60307,0.16285 0.85993,0.30921 0.12215,0.0696 0.14586,0.0683 0.18012,-0.009 0.0351,-0.0793 0.049,-0.0758 0.12426,0.0306 0.0721,0.10216 0.40715,0.32284 0.49813,0.32814 0.0675,0.004 0.49625,0.49516 0.49238,0.56414 -0.006,0.1155 0.25341,0.21355 0.42134,0.15894 0.0779,-0.0253 0.22781,-0.0581 0.33304,-0.0729 0.10522,-0.0148 0.20899,-0.052 0.23061,-0.0826 0.0232,-0.0328 0.0961,0.0217 0.17858,0.13412 0.0766,0.10436 0.16949,0.22445 0.20645,0.26672 0.037,0.0423 0.0631,0.14828 0.0582,0.23557 -0.007,0.13265 -0.0459,0.17291 -0.2341,0.2448 -0.29266,0.11181 -0.66589,0.3319 -0.66941,0.39471 -0.004,0.0796 -0.15889,0.19825 -0.25098,0.19287 -0.0467,-0.003 -0.0869,0.0322 -0.0895,0.0775 -0.003,0.0454 -0.0888,0.17105 -0.1919,0.27922 -0.33952,0.35658 -0.64081,1.03188 -0.66674,1.49442 -0.007,0.12229 -0.0453,0.20744 -0.10836,0.24015 -0.0899,0.0467 -0.089,0.0514 0.0102,0.0596 0.0594,0.005 0.0826,0.0256 0.0517,0.0462 -0.0609,0.0404 -0.11725,0.51496 -0.0572,0.48181 0.02,-0.0111 0.0286,0.0463 0.0189,0.12737 -0.0232,0.19861 -0.0226,0.19796 -0.11201,0.11307 -0.0432,-0.041 -0.0928,-0.0614 -0.11056,-0.0454 -0.0176,0.016 0.0187,0.0609 0.0809,0.0996 0.0831,0.0518 0.10793,0.11655 0.0939,0.24509 -0.0104,0.096 -0.0162,0.19969 -0.0109,0.23044 0.004,0.0306 2.2e-4,0.12134 -0.0103,0.20136 -0.009,0.0801 0.008,0.16346 0.0381,0.18528 0.0305,0.0217 0.0522,0.10028 0.048,0.17424 -0.006,0.10764 0.0201,0.13622 0.13077,0.14266 0.0761,0.004 0.12238,0.0311 0.1029,0.0598 -0.063,0.0917 0.11,0.39193 0.31682,0.54959 0.1108,0.0844 0.21264,0.20853 0.22632,0.27573 0.0662,0.3253 -0.0439,0.71139 -0.22095,0.77547 -0.16595,0.06 -0.51034,0.0599 -0.46914,-1.6e-4 0.0233,-0.0342 -0.016,-0.0596 -0.0996,-0.0645 -0.0854,-0.005 -0.14004,0.0227 -0.14284,0.0727 -0.002,0.0445 -0.053,0.10371 -0.11229,0.13175 -0.13031,0.0616 -0.11257,0.0644 -0.27237,-0.0416 z m -1.98473,-2.9995 c 0.0319,-0.0492 0.15411,-0.0669 0.37228,-0.0543 0.20279,0.0118 0.31112,0.0389 0.28832,0.0722 -0.0213,0.031 0.0326,0.0573 0.12998,0.0629 l 0.16649,0.0102 0.004,-0.51148 c 0.004,-0.51009 0.10153,-0.99677 0.22822,-1.14031 0.0859,-0.0973 0.19109,-0.39245 0.2531,-0.70998 0.0365,-0.18664 0.0871,-0.27903 0.18445,-0.33627 0.0738,-0.0435 0.13696,-0.12796 0.14033,-0.18792 0.003,-0.06 0.0366,-0.10755 0.0737,-0.10575 0.0371,0.002 0.13109,-0.0861 0.20869,-0.19528 0.12982,-0.18267 0.13144,-0.19076 0.0203,-0.10129 -0.1183,0.0954 -0.12128,0.0952 -0.14795,-0.008 -0.0149,-0.0582 -0.045,-0.15676 -0.0668,-0.21887 -0.0217,-0.0621 -0.052,-0.17035 -0.0671,-0.2405 -0.0596,-0.2762 -0.41308,-0.38782 -0.93179,-0.29424 -0.1356,0.0245 -0.32372,0.0406 -0.41805,0.0358 -0.14202,-0.008 -0.24557,0.0607 -0.60279,0.39494 -0.2372,0.22194 -0.46774,0.44877 -0.51233,0.50408 -0.0513,0.0637 -0.10608,0.0826 -0.14917,0.052 -0.0452,-0.0323 -0.0562,-0.0263 -0.033,0.0174 0.0198,0.0374 -0.0544,0.16559 -0.17082,0.29472 -0.11329,0.12566 -0.20879,0.2784 -0.21221,0.33943 -0.003,0.061 -0.0585,0.17118 -0.12218,0.24484 -0.0638,0.0736 -0.11827,0.17503 -0.12108,0.2253 -0.003,0.0503 -0.0327,0.13741 -0.0663,0.19361 -0.0442,0.0738 -0.0422,0.15719 0.007,0.29982 0.0404,0.11697 0.0468,0.2095 0.0157,0.22672 -0.0834,0.0461 -0.0706,0.18831 0.0418,0.46695 0.12604,0.31232 0.22593,0.41239 0.38456,0.38519 0.0854,-0.0148 0.12738,0.0115 0.14725,0.0904 0.0153,0.061 0.0833,0.16104 0.15133,0.22228 0.10832,0.0975 0.16254,0.10691 0.43997,0.0753 0.17402,-0.0197 0.33777,-0.069 0.36388,-0.10913 z m 23.0854,0.47833 c -0.0876,-0.0338 -0.18953,-0.0717 -0.22657,-0.0842 -0.0372,-0.0124 -0.0855,-0.0813 -0.10777,-0.15314 -0.0222,-0.0717 -0.0776,-0.16584 -0.12304,-0.20899 -0.0455,-0.0433 -0.0799,-0.13127 -0.0767,-0.19582 0.003,-0.0645 -0.0236,-0.25601 -0.0598,-0.42544 -0.1028,-0.48135 -0.1034,-0.93088 -0.001,-1.02372 0.0471,-0.0428 0.10992,-0.0763 0.13976,-0.0747 0.0299,0.002 0.071,-0.0417 0.0915,-0.0966 0.072,-0.19266 0.28207,-0.31475 0.5424,-0.31527 0.20669,-4.3e-4 0.28023,0.0278 0.41772,0.16017 0.33063,0.31838 0.40519,0.5161 0.37795,1.00209 -0.0135,0.24169 1.6e-4,0.48564 0.0306,0.54211 0.0426,0.0793 0.0324,0.1416 -0.0439,0.27329 -0.088,0.15186 -0.0897,0.17114 -0.0148,0.17551 0.0461,0.003 0.10395,0.0699 0.12859,0.14939 0.0609,0.19646 0.0605,0.19688 -0.0921,0.1045 -0.16278,-0.0984 -0.29844,-0.0766 -0.4818,0.0778 -0.1747,0.14716 -0.29984,0.17039 -0.50041,0.0928 z m 9.5245,-35.84091 c 0.0128,-0.007 0.0843,-0.0591 0.15894,-0.11519 l 0.13563,-0.10218 -0.0707,0.12034 c -0.039,0.0662 -0.11045,0.11803 -0.15896,0.1152 -0.0485,-0.003 -0.0776,-0.0106 -0.0648,-0.0182 z m -0.23929,-0.16549 c 0.0201,-0.0292 0.0473,-0.0526 0.0603,-0.0518 0.0131,7.7e-4 0.0225,0.0261 0.0208,0.0566 -0.002,0.0302 -0.0288,0.0537 -0.0603,0.0518 -0.0316,-0.002 -0.0409,-0.0272 -0.0208,-0.0566 z"
       id="path3346"
       inkscape:connector-curvature="0" />
  </g>
</svg>
